<?xml version="1.0" encoding="utf-8"?>
<!-- Generator: Adobe Illustrator 27.5.0, SVG Export Plug-In . SVG Version: 6.00 Build 0)  -->
<svg version="1.1" xmlns="http://www.w3.org/2000/svg" xmlns:xlink="http://www.w3.org/1999/xlink" x="0px" y="0px"
	 viewBox="0 0 750 500" style="enable-background:new 0 0 750 500;" xml:space="preserve">
<g id="BACKGROUND">
	<rect style="fill:#FCEFE7;" width="750" height="500"/>
</g>
<g id="OBJECTS">
	<g>
		<defs>
			<rect id="SVGID_1_" y="13.454" width="750" height="486.546"/>
		</defs>
		<clipPath id="SVGID_00000120528737607446074240000005651815968220327597_">
			<use xlink:href="#SVGID_1_"  style="overflow:visible;"/>
		</clipPath>
		<g style="clip-path:url(#SVGID_00000120528737607446074240000005651815968220327597_);">
			<path style="fill:#CC9E55;" d="M755.521,7.039c-11.335,26.446-39.604,38.8-63.356,51.716
				c-11.836,6.436-23.732,13.304-33.587,22.604c-11.539,10.891-18.044,24.289-20.435,39.952c-1.584,10.38-1.904,20.984-4.323,31.228
				c-2.33,9.87-7.538,18.576-10.809,28.104c-3.28,9.552-2.952,18.771-0.174,28.398c2.73,9.46,7.077,18.773,6.963,28.803
				c-0.219,19.135-15.862,33.765-29.622,44.974c-10.967,8.934-34.215,26.766-47.109,11.455c-8.481-10.071-5.034-27.48-16.433-35.523
				c-16.637-11.739-33.694,14.19-42.684,24.536c-7.997,9.204-15.993,18.408-23.99,27.612c-3.453,3.974-6.84,8.02-10.369,11.926
				c-3.276,3.626-7.575,7.212-12.564,4.581c-5.825-3.072-8.94-10.314-13.578-14.776c-6.441-6.197-14.567-6.193-22.671-3.394
				c-17.625,6.089-34.534,16.147-49.615,26.993c-15.38,11.061-29.475,23.964-41.747,38.401
				c-11.509,13.54-20.564,28.566-30.056,43.517c-9.01,14.191-19.181,29.068-34.207,37.453c-8.944,4.992-18.458,6.148-28.528,6.963
				c-10.013,0.81-19.368,2.643-28.257,7.501c-8.76,4.788-16.399,11.393-23.795,18.027c-7.786,6.984-15.574,13.952-23.575,20.692
				c-33.054,27.845-68.552,52.78-105.933,74.472c-9.189,5.332-18.498,10.467-27.838,15.529c-2.202,1.193-0.257,4.473,1.956,3.346
				c38.61-19.671,75.223-43.626,109.51-70.08c16.854-13.004,32.965-26.822,48.803-41.034c7.441-6.676,15.112-13.29,24.018-17.953
				c10.654-5.577,21.792-5.776,33.463-7.1c17.34-1.967,31.055-10.848,42.187-24.031c10.789-12.777,18.752-27.581,27.725-41.613
				c20.986-32.821,50.401-59.854,84.865-78.018c4.161-2.193,8.388-4.263,12.685-6.175c5.305-2.361,10.962-5.059,16.841-5.485
				c9.302-0.674,13.835,6.632,18.911,13.047c3.468,4.383,7.842,8.88,13.924,8.089c4.185-0.545,7.279-3.431,9.991-6.438
				c4.179-4.634,8.189-9.432,12.278-14.146c7.67-8.842,15.34-17.685,23.01-26.527c6.991-8.059,14.048-18.781,23.955-23.494
				c18.705-8.899,20.245,17.762,24.778,28.606c15.499,37.077,64.925-7.754,77.781-25.316c4.938-6.746,8.569-14.475,9.503-22.846
				c1.075-9.633-2.07-18.764-5.036-27.777c-3.282-9.974-5.448-19.498-2.342-29.817c3.015-10.017,8.699-18.995,11.463-29.115
				c5.19-19.001,2.599-39.769,13.275-57.132c7.058-11.478,17.994-19.907,29.286-26.931c23.228-14.451,51.62-24.169,69.331-46.002
				c4.035-4.974,7.202-10.406,9.559-16.36C759.723,6.527,756.358,5.088,755.521,7.039z"/>
			<path style="fill:#CC9E55;" d="M320.25,459.875c-12.574-0.684-24.69-0.883-37.282-0.05c-4.942,0.327-9.668,1.512-14.561,2.142
				c-5.322,0.685-10.6,1.126-15.786,2.57c-7.898,2.2-15.103,5.853-23.154,7.705c-6.942,1.597-13.495,2.814-20.534,3.655
				c-15.712,1.877-31.484,1.144-46.922-2.468c-4.422-1.035-8.497-3.146-12.802-4.554c-2.712-0.887-5.151-1.817-7.687-3.121
				c-4.436-2.281-8.493-3.988-12.51-7.004c-7.25-5.444-16.267-8.553-24.075-13.159c-9.035-5.328-18.036-13.37-28.274-16.493
				c-2.879-0.878-5.702-0.972-8.584-2.041c-3.657-1.357-7.235-2.708-10.987-3.834c-7.769-2.332-17.684-5.646-24.155-10.686
				c-2.684-2.091-4.74-4.813-7.436-6.909c-4.082-3.174-8.566-5.69-13.406-7.497c-6.015-2.245-12.741-4.901-19.171-5.86
				c-0.452,1.562-0.072,3.282,0.124,4.858c0.588,4.71,1.516,9.386,1.884,14.125c1.034,13.321,0.192,26.892,0.192,40.244
				c0,16.648,0.099,33.3-0.011,49.947c-0.043,6.476,1.145,12.639,1.136,19.113c-0.005,3.373-1.392,8.423,2.696,9.117
				c4.057,0.689,8.954-0.051,13.045-0.051c9.229,0,18.458,0,27.687,0c16.99,0,33.98,0.01,50.97-0.053
				c23.332-0.087,46.491,2.228,69.804,2.387c18.773,0.128,37.555-0.079,56.329-0.084c10.12-0.003,20.324,0.421,30.429-0.228
				c2.967-0.19,8.126,0.089,10.583-1.599c0.682-0.469,0.536-1.09,1.141-1.449c3.385-2.013,10.533-1.271,14.066-1.223L320.25,459.875
				z"/>
			<path style="fill:#B76E4C;" d="M794.432,407.633c0.502-3.924,1.028-7.845,1.443-11.777c0.547-5.182,0.274-10.431,0.224-15.632
				c-0.045-4.722,0.888-9.222,1.463-13.898c0.592-4.811,0.417-9.69,1.031-14.481c0.586-2.957,1.199-5.91,1.84-8.856
				c0.313-3.51,0.384-7.026,0.214-10.548c-0.101-12.603-0.453-25.131-1.568-37.697c-1.005-11.323-4.55-22.225-6.718-33.326
				c-3.048-15.607-1.899-31.852-2.67-47.663c-0.544-11.155-1.545-22.275-1.47-33.45c0.091-13.603-0.122-27.121-0.803-40.711
				c-0.996-19.863-2.263-38.998-5.637-58.694c-3.121-16.554-6.227-33.111-9.317-49.671c-0.479-6.219-1.93-12.144-4.354-17.777
				c-2.046,6.898-9.851,11.998-14.773,16.689c-10.693,10.19-19.746,20.768-28.258,32.76c-4.223,5.949-8.822,12.62-8.932,20.17
				c-0.065,4.493-0.067,9.095,0.048,13.588c0.119,4.634,1.494,8.892,2.166,13.399c0.629,4.213,1.313,7.675,2.669,11.718
				c1.507,4.494,3.146,9.167,4.024,13.822c0.029,0.151,0.055,0.302,0.079,0.453c1.296,7.859-0.306,15.89-0.999,23.7
				c-0.447,5.039-0.683,9.281-3.559,13.637c-2.157,3.267-4.986,5.699-7.625,8.532c-1.892,2.031-2.139,4.51-3.654,6.776
				c-3.366,5.035-9.762,4.554-15.112,4.554c-4.638,0-9.623,0.588-14.21,0.058c-4.817-0.557-7.444-1.827-12.018,0.228
				c-1.823,0.819-3.818,1.083-5.665,1.857c-4.282,1.795-7.865,5.082-12.067,7.146c-6.064,2.98-11.856,6.738-18.008,9.495
				c-2.88,1.291-5.926,1.187-8.893,2.083c-6.231,1.883-12.719,3.286-17.322,8.302c-3.16,3.443-5.646,7.798-8.071,11.75
				c-3.144,5.126-6.863,10.018-9.701,15.318c-2.316,4.325-4.054,8.783-6.964,12.779c-2.964,4.071-6.898,6.394-10.783,9.516
				c-5.487,4.409-10.664,9.151-16.259,13.444c-3.961,3.039-7.861,5.905-11.484,9.324c-4.797,4.527-9.429,10.057-11.14,16.544
				c-2.806,10.639-2.491,22.161-3.267,33.031c-0.462,6.462-3.026,11.078-5.866,16.744c-2.787,5.559-5.426,10.827-9.312,15.758
				c-9.94,12.61-22.13,23.852-35.871,32.108c-9.919,5.96-20.968,11.689-31.623,16.129c-5.402,2.251-11.519,5.104-17.359,5.754
				c-16.049,1.787-32.332-1.042-48.397-0.134c-5.023,0.284-9.864,1.829-14.798,2.679c-8.297,1.428-16.452,3.59-24.73,5.106
				c-8.701,1.594-17.487,2.246-26.313,2.617c-1.4,0.059-2.628,0.081-3.974,0.512c-3.355,1.074-6.809,2.548-10.113,3.824
				c-12.122,4.679-23.584,9.884-34.513,16.941c-4.134,2.669-8.12,5.55-12.21,8.284c-2.298,1.536-4.808,2.984-6.483,5.243
				c-1.889,2.546-1.959,7.179-3.964,8.873c-1.06,0.896-1.989,1.007-3.045,2.243c-1.513,1.772-2.957,3.318-4.961,4.569
				c-5.749,3.587-11.632,6.612-17.526,9.983c-5.876,3.361-10.463,6.749-17.227,7.787c-5.381,0.826-10.677-0.424-16.04-0.79
				c-11.908-0.812-23.46-1.907-34.425-6.741c-3.29-1.45-5.78-4.507-9.21-5.585c-4.606-1.448-9.356-1.758-14.055-3.371
				c-7.484-2.569-14.739-5.87-21.541-9.912c-3.315-1.97-8.026-3.822-10.658-6.649c-0.872-0.937-1.314-2.162-2.101-3.159
				c-2.458-3.114-6.277-3.58-9.972-4.287c-4.394-0.841-8.823-2.418-12.834-4.182c-2.869-1.262-6.103-1.414-9.085-2.32
				c-2.675-0.813-4.83-2.04-7.205-3.359c-7.46-4.142-16.54-5.53-24.833-7.074c-4.573-0.852-8.935-2.493-13.507-3.341
				c-5.642-1.046-11.4-1.345-17.013-2.562c-2.714-0.588-9.59-1.954-11.32,0.174c-2.329,2.863,2.083,13.361,2.494,16.269
				c1.443,10.191,0.487,20.578,1.319,30.827c1.072,13.202-0.677,26.704,1.439,39.757c0.938,5.788-1.738,9.136,4.756,10.984
				c12.395,3.525,27.281,1.583,39.886,1.56c12.138-0.022,24.275-0.007,36.413-0.009c10.871-0.002,21.821,0.452,32.675-0.224
				c7.432-0.463,14.832-1.903,22.156-3.149c7.98-1.357,16.187-2.363,24.299-2.282c7.489,0.075,14.939,0.216,22.354-1.095
				c4.018-0.711,7.292-1.153,11.396-1.125c3.768,0.026,6.915-0.085,10.184-1.029c4.769-1.377,11.89-0.093,16.876-0.096
				c2.427-0.001,5.156,0.342,7.532-0.098c2.033-0.377,3.908-1.431,5.908-1.898c5.617-1.31,11.331,0.47,16.875-0.514
				c5.259-0.933,10.412-0.687,15.792-0.565c40.74,0.927,81.485,1.872,122.202,3.512c31.786,1.28,63.659,2.717,95.473,2.992
				c30.808,0.266,61.629-0.124,92.44-0.036c19.268,0.055,39.017,1.356,58.155-1.201c11.862-1.585,23.523-4.34,35.365-6.038
				c25.642-3.675,51.488-5.787,77.053-9.959c17.373-2.835,34.819-4.713,52.354-6.221c2.082-0.179,10.893,0.173,11.333-2.474
				c-1.406-11.129-2.812-22.258-4.217-33.387c-1.64-12.985-3.28-25.97-4.921-38.954c-0.838-6.635-1.29-12.553-0.904-19.207
				C793.221,417.407,793.807,412.518,794.432,407.633z"/>
			<path style="fill:#7F5548;" d="M779.563,183.277c-6.135,5.255-13.851,9.157-20.937,12.928
				c-8.688,4.622-18.375,8.25-27.813,10.799c-4.356,1.177-8.191,3.919-12.117,5.999c-2.584,1.369-5.749,2.113-7.919,4.118
				c-4.928,4.554-7.766,11.231-12.485,16.075c-9.406,9.655-21.798,16.546-29.238,28.004c-5.374,8.276-11.038,16.629-17.216,24.354
				c-3.857,4.823-7.76,8.881-12.415,12.924c-2.604,2.261-6.531,5.183-8.39,8.241c3.84,1.202,9.456,0.13,13.408,0.114
				c10.638-0.043,21.216,1.274,31.84,1.209c3.15-0.019,8.779,1.104,11.895-0.224c3.177-1.354,5.881-6.429,8.254-8.598
				c5.828-5.326,11.345-10.837,17.975-15.191c8.245-5.414,16.169-11.256,24.232-16.93c13.83-9.733,26.52-21.248,38.362-33.35
				l7.875-56.25C782.828,179.075,781.576,181.553,779.563,183.277z"/>
			<path style="fill:#CC9E55;" d="M790.509,144.594c0.294,3.146-0.333,5.487-1.443,8.595c-3.124,8.746-7.432,17.27-12.063,25.293
				c-4.139,7.171-8.626,13.646-13.61,20.246c-3.544,4.693-6.375,10.494-10.966,14.291c-4.942,4.088-11.031,6.603-16.057,10.692
				c-3.553,2.891-7.275,5.466-10.982,8.157c-5.087,3.693-11.144,6.358-14.831,11.698c-4.468,6.47-7.369,14.291-11.226,21.171
				c-2.765,4.932-3.931,10.583-5.605,16c0.173,0.744,0.121,1.472-0.156,2.184c-0.828,0.758-1.452,1.663-1.87,2.715
				c-0.886,2.616-0.143,6.015-0.166,8.75c-0.036,4.162-1.08,8.128-1.213,12.271c-0.115,3.6-0.07,6.962-0.478,10.552
				c-0.833,7.334-1.789,14.887-6.137,21.084c-2.877,4.1-5.44,8.573-8.938,12.187c-4.917,5.08-10.417,9.233-14.844,14.847
				c-9.397,11.919-16.467,26.11-21.209,40.48c-1.394,4.225-1.206,8.004-2.953,12.014c-0.736,1.691-0.36,2.859-0.555,4.658
				c-0.257,2.372-2.93,5.703-2.379,8.025c0.815,3.429,5.535,2.024,8.139,1.987c13.23-0.185,26.136,4.83,38.817,7.985
				c14.984,3.728,30.124,6.526,45.171,9.933c10.283,2.329,20.195,2.634,30.724,2.506c17.236-0.209,35.121-0.082,52.108-3.335
				c5.431-1.04,14.551-2.053,17.974-6.858c1.271-1.784,1.704-3.921,2.996-5.629L790.509,144.594z"/>
			<path style="fill:#7F5548;" d="M396.75,517.25c3.703,0.411,7.86-0.895,11.412-1.724c10.743-2.507,20.952-6.848,31.356-10.442
				c6.588-2.276,13.088-4.186,18.533-8.698c3.865-3.203,6.922-6.821,11.078-9.825c4.593-3.32,9.615-5.951,14.295-9.118
				c4.389-2.971,8.048-6.838,12.439-9.763c3.46-2.305,7.361-4.123,11.222-5.63c2.502-0.976,5.037-2.066,7.737-2.254
				c4.555-0.318,8.964,0.566,13.504-0.42c5.098-1.107,9.525-1.764,14.738-1.722c5.311,0.043,11.129-0.032,15.994-2.483
				c2.665-1.343,3.731-3.284,5.677-5.343c4.024-4.259,9.858-7.021,14.177-11.108c6.605-6.251,9.429-15.873,13.928-23.675
				c4.342-7.529,8.273-15.593,13.132-22.785c2.244-3.321,5.228-5.961,7.286-9.399c1.451-2.424,2.779-3.889,4.788-5.918
				c4.192-4.234,9.476-7.28,14.331-10.744c2.768-1.975,5.59-2.589,8.609-3.849c3.164-1.322,5.505-3.304,8.935-4.084
				c1.729-0.393,3.728-0.396,5.385-1.015c1.582-0.591,2.755-1.84,4.762-2.05c3.204-0.335,7.3,1.194,10.143,2.579
				c3.982,1.939,7.359,3.228,11.894,3.913c6.857,1.036,13.045,3.9,19.802,5.117c5.155,0.929,11.261,3.32,16.489,2.893
				c25.187-2.061,39.873-26.143,57.255-41.085c7.754-6.666,16.746-12.375,25.691-17.326c5.091-2.818,9.675-5.608,14.533-8.73
				c2.849-1.831,7.025-4.488,10.475-4.661c1.891,2.274,1.139,6.07,1.413,8.811c0.417,4.178,1.05,8.14,1.015,12.362
				c-0.012,1.426-0.503,5.176-0.084,6.776c0.275,1.051,1.086,1.358,1.263,2.34c0.396,2.198-0.743,3.159-2.406,4.203
				c-2.951,1.853-6.167,3.544-9.22,5.237c-6.251,3.465-11.502,7.442-17.399,11.478c-6.839,4.68-14.154,8.315-20.699,13.45
				c-5.093,3.996-9.503,8.992-14.721,12.771c-3.894,2.82-8.315,4.789-12.271,7.499c-5.249,3.596-10.167,7.905-15.538,11.215
				c-1.795,1.106-3.006,0.309-4.312,2.621c-1.717,3.041-2.691,5.977-4.967,8.932c-4.286,5.568-9.882,10.014-13.548,16.025
				c-3.966-0.021-8.784-5.45-11.228-8.043c-5.832-6.188-12.428-11.99-16.893-19.221c-2.692-4.36-6.463-8.012-11.174-10.133
				c-5.609-2.525-11.842-5.186-17.841-6.523c-4.601-1.025-9.081-1.147-13.761-1.096c-3.946,0.043-7.334,2.725-9.319,6.212
				c-2.719,4.777-4.07,10.402-6.786,15.141c-3.142,5.482-5.765,12.292-10.806,16.355c-4.395,3.542-9.326,6.677-13.368,10.647
				c-3.916,3.846-6.333,10.009-8.923,14.807c-3.533,6.547-5.758,13.732-9.578,20.115c-1.21,2.022-2.168,4.433-3.94,5.999
				c-2.375,2.099-6.677,3.386-9.777,3.951c-3.658,0.666-7.62,0.158-11.314,0.162c-4.368,0.005-8.814,0.335-13.163-0.184
				c-6.661-0.795-12.957-1.96-19.703-2.207c-5.265-0.193-10.451-1.055-15.725-1.002c-3.013,0.03-6.337-0.397-9.322-0.054
				c-3.523,0.404-6.887,4.305-9.87,6.259c-2.818,1.846-5.537,3.669-7.904,6.092c-2.92,2.991-4.729,6.753-7.485,9.895
				c-5.414,6.173-9.95,12.758-14.147,19.794c-3.058,5.127-7.022,9.276-12.048,12.463c-2.98,1.89-6.134,3.545-9.219,5.257
				c-1.432,0.794-3.68,3.858-5.457,3.321L396.75,517.25z"/>
			<path style="fill:#7F5548;" d="M741.922,311.348c4.757-0.772,8.096-6.189,10.977-9.597c3.094-3.661,4.029-6.734,4.38-11.365
				c0.348-4.584,6.641-23.118-2.895-22.998c-7.107,0.09-11.492,7.21-15.065,12.445c-5.304,7.77-8.31,14.841-8.47,24.597
				c-0.036,2.197-0.547,4.357,1.303,5.901C734.423,312.225,739.252,311.782,741.922,311.348z"/>
			<path style="fill:#7F5548;" d="M724.473,257.715c-4.733,7.241,4.617,11.685,9.417,5.801c2.677-3.281,4.061-15.955-2.923-11.977
				c-2.037,1.16-3.764,2.643-5.218,4.428C725.297,256.521,724.872,257.104,724.473,257.715z"/>
			<path style="fill:#5B5F50;" d="M174.263,449.689c3.359-3.388,7.657-6.086,12.167-7.655c4.531-1.576,8.618-3.886,13.029-5.824
				c1.727-0.759,4.676-2.316,6.601-2.292c4.606,0.056,10.177,3.362,12.994,6.832c3.298,4.064,3.029,11.206,1.115,15.808
				c-2.979,7.163-11.124,11.288-16.575,16.501c-4.957,4.74-8.997,5.963-15.532,5.941c-2.159-0.007-4.052-0.099-6.149,0.509
				c-3.366,0.977-5.813,3.019-9.462,2.959c-3.631-0.06-7.615-1.064-10.365-3.484c-3.595-3.163-3.293-7.185-1.764-11.382
				C162.887,460.562,169.101,454.895,174.263,449.689z"/>
			<path style="fill:#5B5F50;" d="M219,403.625c0.856,2.798-1.947,6.388-4.44,7.361c-2.638,1.03-6.502-0.269-9.109-1.222
				c-4.166-1.523-5.246-3.179-5.604-7.051c-0.351-3.797,1.829-5.246,4.528-8.087c3.522-3.707,4.709-5.274,10.125-6.576
				c2.55-0.613,6.271-0.658,7.924,1.656c1.617,2.264,1.324,6.81,1.098,9.474C223.209,402.873,221.36,401.386,219,403.625z"/>
			<path style="fill:#CC9E55;" d="M600.373,215.908c-2.893,3.628-7.823,8.43-12.397,9.737c-2.147,0.613-5.244,0.387-7.393,0.188
				c-2.903-0.268-8.494-2.606-10.205-5.317c-1.035-1.64-0.556-4.267-0.471-6.128c0.186-4.047,0.562-8.83,1.79-12.69
				c1.409-4.428,4.313-7.085,6.97-10.708c3.2-4.364,6.185-8.447,11.611-10.479c3.583-1.342,8.008-3.554,10.965-0.098
				c3.652,4.269,4.667,10.751,4.857,16.109C606.359,203.835,605.081,210.005,600.373,215.908z"/>
			<path style="fill:#CC9E55;" d="M593.95,159.742c-0.428,7.067,12.437,9.605,15.042,3.27c1.231-2.993,0.502-6.691,0.369-9.809
				c-0.094-2.184,0.499-6.941-1.735-8.302c-2.005-1.222-7.381,2.151-8.492,3.523C596.799,151.307,594.18,155.954,593.95,159.742z"/>
		</g>
	</g>
	<g>
		<defs>
			<rect id="SVGID_00000035510246901309121190000014960743871366863239_" width="375" height="358.5"/>
		</defs>
		<clipPath id="SVGID_00000113352636951880511990000002683661238514428350_">
			<use xlink:href="#SVGID_00000035510246901309121190000014960743871366863239_"  style="overflow:visible;"/>
		</clipPath>
		<path style="clip-path:url(#SVGID_00000113352636951880511990000002683661238514428350_);fill:#CC9E55;" d="M457.189-34.954
			c-24.011,12.953-52.178,12.823-77.223,22.82c-10.307,4.114-20.264,9.747-28.044,17.772c-8.741,9.016-12.778,19.92-14.074,32.278
			c-0.742,7.078-0.896,14.251-2.511,21.21c-1.305,5.62-3.447,11.019-6.171,16.098c-5.64,10.517-13.762,19.995-23.758,26.59
			c-4.871,3.214-10.171,5.684-15.845,7.084c-7.017,1.732-14.299,2.08-21.292,3.926c-11.798,3.115-21.32,10.904-30.962,17.985
			c-4.789,3.518-9.706,6.927-15.075,9.51c-6.301,3.032-13.154,4.536-20.121,4.848c-14.675,0.657-28.927-3.376-43.168-6.278
			c-12.9-2.629-26.785-4.66-39.69-0.957c-7.703,2.21-14.618,6.565-20.046,12.446c-11.659,12.63-16.567,30.405-19.219,46.98
			c-1.379,8.616-2.151,17.323-2.447,26.041c-0.302,8.907,0.194,17.821-0.125,26.721c-0.207,5.774-0.861,11.798-3.379,17.077
			c-2.792,5.853-7.638,9.141-13.225,12.063c-5.697,2.98-10.765,6.245-14.961,11.196c-3.864,4.56-6.895,9.73-9.812,14.925
			c-2.855,5.085-5.519,10.379-9.303,14.855c-3.517,4.162-7.707,7.699-12.222,10.73c-9.344,6.273-19.869,10.59-30.3,14.687
			c-4.88,1.917-9.768,3.801-14.599,5.841c-1.34,0.566-0.377,2.888,0.999,2.37c19.995-7.524,42.919-13.72,57.763-30.115
			c8.025-8.863,11.817-20.615,19.303-29.89c4.152-5.144,9.146-8.462,14.945-11.497c5.226-2.734,10.034-5.843,13.208-10.961
			c5.899-9.512,5.351-21.599,5.144-32.349c-0.156-8.155-0.02-16.305,0.451-24.449c1.01-17.488,3.64-35.82,12.187-51.376
			c3.973-7.231,9.372-13.752,16.458-18.105c9.223-5.665,20.078-6.78,30.693-5.999c27.786,2.044,56.536,16.96,83.661,3.492
			c10.736-5.331,19.534-13.678,29.638-20.009c5.349-3.352,10.985-5.944,17.168-7.319c6.906-1.536,14.039-1.907,20.864-3.834
			c21.791-6.151,39.168-26.945,45.439-48.164c3.864-13.073,1.83-27.253,6.715-40.067c4.176-10.956,12.968-19.385,22.813-25.384
			c22.322-13.602,48.939-14.599,73.356-22.298c6.357-2.004,12.55-4.498,18.421-7.663C460.705-33.123,459.05-35.958,457.189-34.954z"
			/>
	</g>
	<g>
		<defs>
			<rect id="SVGID_00000094601173563802801670000003889816647280028050_" width="394.275" height="258.007"/>
		</defs>
		<clipPath id="SVGID_00000044859619856514842600000000197273339976117690_">
			<use xlink:href="#SVGID_00000094601173563802801670000003889816647280028050_"  style="overflow:visible;"/>
		</clipPath>
		<g style="clip-path:url(#SVGID_00000044859619856514842600000000197273339976117690_);">
			<path style="fill:#7F5548;" d="M-29.625,242.25c5.311,4.561,18.521-1.217,23.769-2.652c13.563-3.709,28.944-7.075,39.309-17.187
				c6.797-6.632,11.663-14.466,17.2-22.062c4.469-6.13,11.1-10.499,16.5-15.697c4.862-4.68,8.553-10.862,11.808-16.709
				c5.382-9.666,10.447-19.488,16.47-28.775c3.407-5.253,6.926-10.214,10.85-15.098c3.51-4.369,6.326-9.026,9.569-13.57
				c4.054-5.68,9.017-11.257,12.393-17.364c3.655-6.611,6.593-13.882,12.883-18.537c2.211-1.636,4.807-3.718,7.565-4.389
				c2.911-0.708,6.637-0.08,9.623-0.085c5.242-0.009,9.906-0.022,14.999-1.647c2.938-0.937,5.107-2.17,7.633-3.922
				c3.603-2.498,7.578-4.076,11.435-6.112c4.381-2.313,8.589-4.651,12.989-6.879c1.651-0.836,3.467-1.454,5.054-2.346
				c2.109-1.186,3.661-2.967,6.107-3.647c5.04-1.401,10.06-2.882,14.835-5.305c1.956-0.992,4.319-1.564,6.138-2.75
				c4.156-2.71,6.18-9.086,7.808-13.447c3.78-10.129,8.345-19.885,12.511-29.811c2.054-4.894,4.978-7.911,8.359-11.771
				c-7.634,0.15-15.58,1.373-23.223,1.884c-4.605,0.307-10.56,1.249-15.056-0.143c-3.466,3.118-2.913,10.646-3.277,14.918
				c-0.407,4.782-1.924,8.812-3.379,13.338c-1.791,5.568-3.989,11.424-6.464,16.717c-1.123,2.401-3.608,5.626-5.979,6.844
				c-8.867,4.556-18.511,10.168-28.319,12.247c-6.171,1.308-12.328,2.388-18.603,3.047c-4.932,0.517-10.19,0.125-15.012,1.233
				c-5.649,1.298-10.608,4.538-15.888,6.634c-2.809,1.115-7.41,0.09-8.667,3.178c-0.085,1.057-0.15,2.115-0.195,3.175
				c-0.759,1.699-1.741,3.26-2.946,4.682c-1.98,3.464-3.089,7.757-4.544,11.447c-2.718,6.893-3.824,14.661-7.28,21.231
				c-2.735,5.199-5.58,10.262-8.277,15.555c-7.042,13.816-16.383,26.305-23.901,39.873c-3.408,6.151-7.543,10.444-13.32,14.605
				c-6.439,4.638-14.078,9.54-21.601,12.282c-10.61,3.868-22.231,3.043-33.338,3.012c-5.876-0.016-11.757,0.126-17.633,0.062
				c-8.214-0.09-16.295-1.275-24.528-1.183L-29.625,242.25z"/>
			<path style="fill:#CC9E55;" d="M-34.125,165.75c2.781,0.537,5.448-0.194,7.999-2.194c7.197-2.53,14.308-5.284,21.331-8.261
				c7.923-3.731,15.714-7.64,23.711-11.224c8.413-3.77,16.2-8.612,24.57-12.451c3.067-1.407,5.321-3.492,8.293-4.994
				c2.61-0.97,5.233-1.904,7.869-2.803c1.918-1.029,3.865-1.996,5.843-2.903c2.543-0.854,5.844-1.242,8.477-1.353
				c6.426-0.271,12.637-0.183,19.063-0.817c4.728-0.466,9.539-0.411,14.281-0.297c10.633,0.257,20.214,4.318,30.773,4.597
				c10.589,0.28,22.442,1.281,32.867-1.095c5.996-1.366,12.337-2.08,18.192-3.966c4.357-1.404,6.939-3.988,10.815-6.275
				c5.244-3.094,11.438-3.825,16.749-6.822c6.22-3.509,11.943-7.746,18.212-11.228c14.904-8.278,26.547-21.103,43.678-24.946
				c5.432-1.219,11.063-2.153,16.537-3.151c4.435-0.809,9.529-0.927,13.832-2.358c3.461-1.152,6.467-3.247,9.993-4.4
				c4.083-1.336,6.443-3.008,10.007-5.287c2.36-1.509,4.377-2.97,6.606-4.684c3.896-2.996,8.602-5.084,12.359-8.191
				c2.566-2.123,4.186-5.264,6.54-7.625c3.898-3.909,7.909-7.799,11.951-11.554c2.854-2.652,4.534-5.496,6.664-8.748
				c2.31-3.527,5.444-6.263,7.942-9.627c2.601-3.502,4.471-7.208,7.532-10.391c2.599-2.704,5.826-4.759,8.322-7.531
				c-7.653,1.19-14.911,4.467-22.582,5.735c-5.205,0.505-10.397,1.115-15.578,1.83c-7.978,1.491-16.016,2.501-24.115,3.031
				c-15.973,0.886-32.163,0.123-48.154,0.082c-13.568-0.035-27.039,0.835-40.596,1.129c-14.462,0.313-28.605,2.409-43.009,3.235
				c-10.671,0.612-21.15,0.251-31.826,1.287c-17.708,1.719-35.497,1.085-53.272,1.167c-6.846,0.032-13.54-1.034-20.356-1.225
				C91.282,1.27,85.118,1.5,78.999,1.5c-6.59,0-13.235,0.255-19.822,0.054C54.112,1.4,49.332,0.047,44.324-0.5
				C27.566-2.329,10.902-3-6-3L-34.125,165.75z"/>
			<path style="fill:#E1BE9C;" d="M313.39-10.875c-10.458,0.52-17.466,9.141-24.746,16.147
				c-8.763,8.433-16.101,18.399-24.664,27.062c-8.818,8.921-18.018,17.511-28.2,24.877c-13.295,9.619-30.111,18.584-46.773,18.765
				c-13.121,0.143-25.779-3.166-38.832-3.508c-14.831-0.389-24.905,8.9-35.446,18.23c-13.996,12.389-26.118,26.96-37.621,41.628
				c-9.991,12.74-20.502,24.859-32.536,35.722c-11.037,9.963-23.621,20.421-36.632,27.689c-8.104,4.527-16.005,8.165-25.09,10.028
				c-4.238,0.869-5.925,0.941-8.404-2.991c-2.044-3.242-1.18-3.318,0.762-6.984c2.197-4.145,2.875-8.365,3.779-13.024
				c1.799-9.267,3.952-18.486,5.146-27.848c1.686-13.216,1.103-26.586,2.385-39.854c1.477-15.292-0.028-30.718,0.673-46.086
				c0.128-2.819,0.965-5.184,1.241-7.913c0.358-3.537-0.058-7.397-0.058-10.946c0-13.564,0-27.128,0-40.692
				c0-5.664,0.136-11.344,0-17.005c-0.017-0.693-0.341-2.703-0.16-3.321c0.822-2.817,4.444-2.281,6.7-2.25
				c4.172,0.058,8.32-0.304,12.473-0.267c5.516,0.049,10.568,2.479,16.16,2.54c5.918,0.065,11.84,0,17.758,0
				c16.881,0,33.762,0,50.643,0c20.722,0,41.443,0,62.165,0c21.113,0,42.226,0,63.338,0c18.054,0,36.108,0,54.162,0
				c11.545,0,23.091,0,34.636,0C308.619-10.875,311.023-10.757,313.39-10.875z"/>
			<path style="fill:#FCEFE7;" d="M297.128-23.642c-12.952,1.124-25.527-3.733-38.458-2.97c-6.05,0.357-11.832,2.111-16.915,5.44
				c-5.04,3.3-9.257,7.672-13.264,12.126c-8.058,8.957-16.015,18.239-25.991,25.148c-4.813,3.333-10.046,6.052-15.689,7.667
				c-6.557,1.877-13.375,1.992-20.137,1.552c-6.961-0.452-13.883-1.442-20.862-1.628c-6.54-0.174-13.036,0.551-19.348,2.29
				c-12.481,3.439-23.792,10.166-34.337,17.516C70.073,58.872,49.749,76.814,31.64,96.676c-7.731,8.479-15.253,17.206-23.92,24.762
				c-8.231,7.176-17.745,13.387-28.676,15.288c-2.208,0.384-4.442,0.539-6.68,0.54c-1.973-8.5,2.678-17.104,8.843-22.805
				c7.342-6.79,16.887-10.546,25.447-15.48c14.017-8.079,25.851-19.357,37.027-30.922c11.193-11.583,21.896-23.738,34.261-34.114
				c5.953-4.996,12.324-9.523,19.205-13.154c7.693-4.06,15.84-6.602,24.375-8.201c9.869-1.849,20.165-2.931,29.246-7.524
				c7.315-3.7,14.018-9.744,16.674-17.688c0.649-1.942,0.982-3.972,1.092-6.014c0.069-1.281-1.206-1.923-2.291-1.745
				c-11.885,1.944-23.802,3.754-35.652,5.903c-10.978,1.991-21.898,4.535-32.185,8.94c-19.761,8.464-34.001,24.595-48.895,39.47
				C35.204,48.224,17.623,63.067-3.559,64.177c-4.114,0.215-9.16,0.305-12.546-2.472c-1.363-1.117-2.083-2.751-1.312-4.448
				c0.872-1.918,3.087-3.042,4.87-3.948c8.64-4.389,16.942-9.006,24.693-14.873c15.576-11.79,28.716-26.78,38.133-43.913
				c1.168-2.124,2.273-4.281,3.327-6.464c1.027-2.128-2.152-4-3.184-1.861C41.628,4.416,28.757,20.489,12.986,33.15
				C5.149,39.442-3.431,44.837-12.481,49.204c-3.742,1.806-8.369,4.079-8.876,8.738c-0.474,4.355,3.051,7.294,6.757,8.715
				c4.516,1.732,9.814,1.462,14.528,0.878c5.174-0.642,10.201-2.016,15.02-3.997c9.903-4.07,18.762-10.268,26.811-17.266
				C58.049,32.11,71.199,14.2,89.88,2.901c9.925-6.003,21.028-9.526,32.297-12.012c11.744-2.591,23.69-4.284,35.553-6.227
				c2.308-0.378,4.615-0.756,6.923-1.134c-1.304,7.517-7.097,13.475-13.552,17.244c-8.785,5.131-19.202,6.29-29.038,8.066
				c-8.696,1.57-17.024,3.974-24.947,7.928c-7.027,3.507-13.521,7.977-19.618,12.909C64.975,39.807,54.216,51.887,43.104,63.493
				C31.938,75.157,20.273,86.675,6.339,95.025c-8.498,5.093-17.818,8.831-25.563,15.124c-6.797,5.522-12.292,13.861-12.366,22.866
				c-0.018,2.171,0.328,4.339,0.981,6.407c0.232,0.734,0.874,1.237,1.648,1.254c23.084,0.516,40.715-17.272,55.153-33.095
				c8.704-9.539,17.36-19.054,26.747-27.939c9.816-9.292,20.147-18.049,30.943-26.182c10.37-7.812,21.143-15.455,33.082-20.695
				c5.989-2.628,12.353-4.606,18.852-5.444c6.842-0.883,13.753-0.36,20.591,0.28c6.898,0.646,13.838,1.436,20.775,0.976
				c6.237-0.414,12.223-1.933,17.885-4.579c10.717-5.007,19.486-13.4,27.416-22c7.993-8.668,15.472-19.89,26.985-24.125
				c12.329-4.535,25.727,0.235,38.232,1.406c1.857,0.174,3.718,0.263,5.579,0.266c-10.613,10.462-21.208,20.94-31.772,31.451
				c-9.906,9.857-19.589,20.219-30.787,28.646c-10.829,8.149-23.002,13.858-36.693,14.561c-14.095,0.723-28.014-2.455-42.045-3.141
				c-6.838-0.334-13.746-0.095-20.432,1.49c-6.467,1.533-12.554,4.398-18.08,8.061c-10.946,7.255-19.832,17.18-28.616,26.823
				c-16.882,18.532-33.059,37.788-51.424,54.903c-17.712,16.506-37.873,31.132-61.169,38.53c-2.864,0.91-5.761,1.703-8.685,2.396
				c-1.645,0.39-0.948,2.91,0.698,2.531c23.81-5.471,44.765-18.372,63.146-34.134c19.156-16.426,35.711-35.589,52.537-54.316
				c8.646-9.622,17.197-19.593,27.051-28.013c5.164-4.412,10.82-8.328,17.06-11.063c6.381-2.798,13.287-4.025,20.224-4.222
				c14.194-0.403,28.144,3.022,42.293,3.51c6.934,0.239,13.932-0.245,20.646-2.075c6.303-1.719,12.293-4.523,17.841-7.952
				c11.246-6.952,20.784-16.289,30.109-25.564c11.564-11.502,23.135-22.996,34.638-34.559c2.798-2.813,5.596-5.625,8.394-8.438
				C299.083-21.908,298.495-23.76,297.128-23.642z"/>
		</g>
	</g>
	<g>
		<defs>
			<rect id="SVGID_00000128483700671488479400000008121679629780473773_" x="198.21" y="249.965" width="551.79" height="250.035"/>
		</defs>
		<clipPath id="SVGID_00000068650173587542861240000000735559862318943150_">
			<use xlink:href="#SVGID_00000128483700671488479400000008121679629780473773_"  style="overflow:visible;"/>
		</clipPath>
		<g style="clip-path:url(#SVGID_00000068650173587542861240000000735559862318943150_);">
			<path style="fill:#7F5548;" d="M475.597,422.282c-6.161,0-12.323,0-18.484,0c-5.08,0-10.445,0.506-15.471-0.199
				c-5.194-0.729-9.778-1.653-15.073-1.774c-6.723-0.154-13.357-1.031-20.148-1.021c-7.372,0.01-14.822,0.219-22.055,1.894
				c-7.627,1.766-14.626,4.783-21.9,7.48c-12.384,4.593-26.592,7.455-36.174,17.12c-4.669,4.71-8.317,10.75-11.412,16.629
				c-1.533,2.912-2.179,5.575-4.286,8.118c-2.243,2.707-4.331,5.29-6.382,8.137c-2.645,3.672-6.526,6.289-10.038,9.087
				c-3.435,2.737-6.522,5.366-9.63,8.528c-4.409,4.485-9.441,8.779-14.985,11.837c-4.919,2.713-10.924,3.872-15.464,7.227
				c4.242,3.009,9.255,3.684,15.036,2.024c7.023,0.342,14.047,0.684,21.07,1.026c10.734,0.556,21.458,1.327,32.199,1.75
				c11.731,0.462,23.478,0.196,35.215,0.242c12.854,0.051,25.13-0.94,37.882-2.384c10.396-1.178,20.824-2.032,31.164-3.656
				c4.664-0.732,8.992-2.319,13.547-3.454c2.755-0.686,6.535-1.1,8.369-3.554L475.597,422.282z"/>
			<g>
				<path style="fill:#E1BE9C;" d="M771.743,428.094c-1.141-3.566-2.87-6.654-4.401-10.015c-1.814-3.983-2.735-7.657-5.704-11.084
					c-3.216-3.712-8.214-8.403-13.422-8.589c-2.931-0.105-5.455,0.115-8.256,1.025c-2.831,0.919-6.197,2.662-9.139,3.008
					c-3.857,0.454-11.699-2.267-13.08-6.153c-0.717-2.018-0.093-6.076,0.161-8.186c0.662-5.501,2.539-9.942,3.8-15.241
					c2.799-11.767,5.83-24.52,6.052-36.665c0.099-5.436,0.56-11.482-0.043-16.865c-0.534-4.765-3.347-8.682-6.839-12.003
					c-3.153-2.998-7.585-4.677-11.89-4.976c-4.631-0.321-8.506,1.662-12.789,3.056c-2.783,0.906-5.659,1.544-8.385,2.621
					c-7.115,2.811-12.856,8.345-20.71,9.345c-6.612,0.841-10.472-0.844-16.3-3.526c-6.796-3.127-14.209-3.207-21.292-0.779
					c-8.317,2.851-15.357,12.528-20.861,18.476c-12.333,13.328-24.451,26.911-37.326,39.726c-9.223,9.18-18.789,19.449-30.2,25.814
					c-4.394,2.451-8.515,3.861-13.59,3.489c-5.069-0.371-9.078-2.759-13.419-5.166c-3.414-1.893-6.505-3.545-10.398-4.271
					c-8.428-1.571-19.634,3.633-26.959,7.146c-28.229,13.541-47.894,39.173-66.248,63.624
					c-7.751,10.325-15.781,20.937-22.603,31.962c-4.166,6.733-7.843,13.722-11.653,20.659l363.241,20.013
					c3.058,0.277,12.07,2.042,16.143,1.04c0.492-0.121,1.167,0.186,1.636-0.132c0.884-0.599,1.768-3.159,2.171-3.998
					c1.576-3.278,2.878-6.642,3.553-10.239c0.926-4.94,1.519-9.926,2.559-14.855c2.159-10.237,5.113-20.292,7.426-30.494
					C776.562,460.06,776.721,443.653,771.743,428.094z"/>
				<g>
					<path style="fill:#FCEFE7;" d="M728.93,448.262c-0.945-10.892-6.831-19.621-14.517-27.042
						c-7.841-7.571-17.754-14.044-22.904-23.942c-4.465-8.581-2.485-18.316-0.464-27.296c1.399-6.217,3.902-12.215,5.748-18.307
						c1.051-3.469,2.037-6.977,2.681-10.548c0.511-2.837,0.963-5.887,0.315-8.742c-0.551-2.428-2.388-4.38-4.788-5.073
						c-2.735-0.79-5.629,0.111-8.136,1.213c-6.231,2.739-11.501,7.379-16.984,11.317c-1.896,1.361-4.266,3.087-6.146,3.673
						c-5.628,1.753-11.767,0.801-17.55,1.497c-10.634,1.28-20.225,6.461-28.689,12.802c-9.164,6.864-17.577,14.827-25.52,23.055
						c-7.536,7.806-14.232,16.312-21.512,24.342c-6.436,7.099-13.778,14.037-22.976,17.305c-10.234,3.635-21.21,1.975-31.762,1.108
						c-10.501-0.863-21.208-0.749-30.54,4.784c-4.707,2.791-8.8,6.51-12.718,10.296c-4.291,4.146-8.51,8.369-12.685,12.63
						c-16.708,17.053-32.624,34.956-47.447,53.673c-3.583,4.524-7.111,9.091-10.59,13.695c-1.159,1.534,1.492,3.603,2.685,2.072
						c14.424-18.513,29.648-36.43,45.696-53.556c8.009-8.547,16.209-16.922,24.615-25.078c3.8-3.687,7.704-7.34,12.263-10.082
						c4.527-2.722,9.568-4.194,14.82-4.619c10.441-0.846,20.814,1.457,31.246,1.436c10.13-0.021,19.461-2.896,27.611-8.955
						c7.837-5.826,14.133-13.333,20.392-20.755c7.355-8.722,15.079-17.087,23.404-24.896c7.873-7.385,16.133-14.711,25.712-19.821
						c4.529-2.417,9.363-4.243,14.429-5.135c5.533-0.974,11.194-0.344,16.747-1.157c6.486-0.95,11.277-5.351,16.392-9.112
						c2.785-2.047,5.61-4.078,8.643-5.748c2.108-1.161,4.672-2.441,6.992-2.171c1.511,0.176,2.38,1.379,2.551,2.899
						c0.313,2.781-0.299,5.683-0.903,8.382c-1.575,7.036-4.045,13.838-6.274,20.683c-2.32,7.126-4.103,14.855-4.155,22.368
						c-0.031,4.606,0.943,9.096,2.955,13.242c2.367,4.877,6.079,9.066,9.928,12.828c7.454,7.283,16.369,13.387,22.113,22.25
						c5.862,9.046,6.272,19.606,3.216,29.724c-1.531,5.067-3.702,9.9-5.933,14.69c-2.31,4.958-4.538,9.94-6.74,14.947
						c-4.858,11.049-10.06,21.947-15.594,32.673c-2.696,5.226-5.475,10.409-8.326,15.552c-1.354,2.443,2.392,4.633,3.744,2.189
						c5.943-10.743,11.556-21.667,16.815-32.762c5.005-10.56,9.597-21.309,14.48-31.926
						C725.671,469.288,729.864,459.023,728.93,448.262z"/>
					<path style="fill:#FCEFE7;" d="M669.469,436.968c-2.747-2.903-5.802-5.547-8.268-8.706c-2.335-2.991-3.853-6.449-4.707-10.132
						c-1.784-7.696-0.803-15.735-0.16-23.508c0.333-4.021,0.367-8.351-1.721-11.956c-1.37-2.364-3.688-4.054-6.372-4.59
						c-5.61-1.12-11.482,1.31-16.443,3.698c-5.87,2.826-11.143,6.397-15.711,11.075c-5.297,5.425-9.63,11.681-14.321,17.614
						c-5.137,6.498-10.793,12.582-16.906,18.171c-6.048,5.53-12.546,10.863-19.629,15.02c-3.48,2.043-7.179,3.72-11.151,4.529
						c-4.141,0.843-8.296,0.358-12.385-0.53c-4.305-0.936-8.542-2.147-12.944-2.559c-3.64-0.341-7.31-0.112-10.901,0.558
						c-14.779,2.76-27.176,13.031-37.676,23.201c-6.209,6.015-12.128,12.334-18.142,18.542c-6.534,6.745-13.04,13.515-19.557,20.277
						c-3.211,3.331-6.298,6.757-9.353,10.232c-0.894,1.017,0.491,2.428,1.494,1.494c6.704-6.247,13.062-12.819,19.471-19.366
						c6.459-6.598,12.903-13.21,19.345-19.824c10.314-10.589,21.097-21.82,34.805-27.964c6.372-2.856,13.351-4.28,20.329-3.573
						c4.191,0.425,8.256,1.693,12.359,2.588c4.156,0.906,8.328,1.397,12.563,0.795c7.95-1.131,14.987-5.615,21.336-10.276
						c6.55-4.809,12.738-10.106,18.465-15.871c5.587-5.624,10.578-11.717,15.406-17.993c4.439-5.771,8.965-11.606,14.645-16.225
						c4.26-3.464,9.531-6.212,14.687-8.1c2.412-0.883,4.932-1.62,7.461-1.615c2.043,0.004,3.949,0.572,5.152,2.251
						c2.181,3.043,1.751,7.3,1.441,10.808c-0.337,3.815-0.703,7.629-0.795,11.46c-0.183,7.597,0.735,15.57,4.918,22.106
						c2.154,3.366,5.011,6.178,7.821,8.987c2.916,2.914,5.646,5.943,7.851,9.443c3.722,5.908,5.597,12.602,4.869,19.586
						c-0.684,6.555-3.591,12.734-6.996,18.288c-3.786,6.175-8.368,11.81-13.044,17.325c-5.89,6.948-11.826,13.858-17.74,20.785
						c-5.904,6.916-11.717,13.921-17.722,20.75c-1.853,2.107-4.685,5.276-7.783,5.123c-2.378-0.118-2.372,3.579,0,3.697
						c4.02,0.199,7.023-1.702,9.737-4.536c3.077-3.213,5.85-6.758,8.738-10.141c6.119-7.168,12.238-14.335,18.357-21.503
						c5.507-6.451,11.15-12.813,16.341-19.525c4.507-5.828,8.647-11.961,11.481-18.792c2.666-6.427,3.807-13.367,2.645-20.268
						C679.423,449.875,674.933,442.741,669.469,436.968z"/>
					<path style="fill:#FCEFE7;" d="M628.256,493.166c6.622-5.992,13.686-13.696,12.765-23.315c-0.14-1.465-0.48-2.907-1.354-4.118
						c-0.929-1.288-2.224-2.028-3.451-2.983c-1.824-1.42-2.549-3.703-2.717-5.934c-0.196-2.622,0.216-5.247,0.149-7.874
						c-0.056-2.24-0.29-4.523-0.881-6.689c-0.857-3.144-2.64-6.342-5.732-7.736c-3.067-1.383-6.37-0.822-9.346,0.517
						c-3.757,1.691-6.962,4.646-9.632,7.729c-3.234,3.734-6.068,7.816-9.207,11.631c-6.249,7.594-13.598,14.822-23.488,17.114
						c-6.305,1.461-12.856,0.619-19.207-0.06c-6.175-0.66-12.24-1.016-18.391,0.061c-23.926,4.187-41.166,23.988-54.094,43.085
						c-1.705,2.518-3.347,5.054-4.873,7.684c-0.642,1.107,0.983,2.479,1.833,1.415c3.784-4.738,7.158-9.78,10.805-14.622
						c3.564-4.733,7.344-9.315,11.48-13.561c7.813-8.021,17.138-14.898,27.858-18.44c5.369-1.774,10.913-2.619,16.567-2.461
						c6.313,0.177,12.545,1.391,18.856,1.588c5.742,0.179,11.328-0.707,16.588-3.047c4.532-2.016,8.565-5.062,12.139-8.472
						c3.53-3.367,6.644-7.138,9.666-10.959c2.904-3.671,5.62-7.574,9.041-10.794c2.439-2.296,5.193-4.282,8.284-4.911
						c0.123-0.025,0.248-0.045,0.372-0.066c0.086-0.009,0.264-0.03,0.308-0.031c0.285-0.01,0.567-0.026,0.853-0.017
						c0.167,0.006,0.332,0.019,0.498,0.033c0.008,0.001,0.009,0,0.016,0.001c0.023,0.006,0.035,0.01,0.07,0.018
						c0.315,0.073,0.621,0.154,0.93,0.25c0.115,0.036,0.169,0.049,0.199,0.053c0.018,0.017,0.064,0.05,0.175,0.116
						c0.233,0.139,0.464,0.275,0.687,0.427c0.021,0.031,0.394,0.336,0.471,0.411c0.124,0.122,0.239,0.251,0.358,0.377
						c0.101,0.107,0.148,0.154,0.17,0.175c-0.008-0.003-0.005,0.012,0.058,0.102c1.989,2.856,2.339,6.729,2.293,10.409
						c-0.033,2.626-0.395,5.199-0.044,7.821c0.346,2.59,1.263,5.119,3.103,7.033c0.892,0.928,2.021,1.538,3.005,2.348
						c0.995,0.82,1.262,1.822,1.324,3.077c0.102,2.059-0.07,3.686-0.729,5.646c-1.302,3.874-4.154,7.319-7.02,10.272
						c-3.242,3.34-6.825,6.324-10.39,9.308c-3.602,3.015-7.019,6.134-10.349,9.448c-9.541,9.498-19.082,18.996-28.623,28.493
						c-2.31,2.3-4.555,4.648-6.763,7.046c-1.688,1.834,0.893,4.41,2.732,2.732c5.14-4.689,10.011-9.652,14.94-14.559
						c4.823-4.801,9.646-9.602,14.469-14.403c4.158-4.139,8.197-8.45,12.625-12.306
						C621.162,499.174,624.808,496.286,628.256,493.166z"/>
					<path style="fill:#FCEFE7;" d="M584.457,496.936c-1.49-3.646-5.161-5.795-8.938-6.33c-4.236-0.6-8.626,0.39-12.765,1.256
						c-3.869,0.809-7.696,1.823-11.459,3.032c-7.62,2.447-15.003,5.682-21.969,9.623c-3.865,2.187-7.647,4.574-11.203,7.237
						c-3.556,2.664-7.405,5.455-10.203,8.936c-0.844,1.051,0.242,2.914,1.566,2.03c3.055-2.039,5.798-4.555,8.772-6.718
						c2.995-2.177,6.069-4.254,9.237-6.171c6.258-3.787,12.869-6.978,19.736-9.499c6.908-2.537,14.07-4.43,21.342-5.572
						c3.408-0.535,7.448-0.896,10.357,1.353c1.16,0.897,2.031,2.184,2.113,3.675c0.101,1.841-0.734,3.608-1.6,5.181
						c-4.187,7.608-9.994,13.989-16.026,20.156c-1.355,1.385,0.505,4.065,2.156,2.794c6.592-5.074,11.925-11.766,16.204-18.867
						C583.938,505.467,586.182,501.158,584.457,496.936z"/>
				</g>
			</g>
			<path style="fill:#E1BE9C;" d="M378.75,446.729c-2.999,1.192-5.682,3.355-8.575,4.802c-5.186,2.594-10.365,4.031-14.927,7.724
				c-4.401,3.563-8.796,6.277-13.737,9.002c-4.736,2.612-8.556,6.424-13.255,9.088c-2.218,1.257-4.583,2.344-6.588,3.947
				c-1.8,1.44-3.301,3.231-5.19,4.583c-2.984,2.135-6.173,3.647-8.087,6.953c-2.235,3.862-6.865,11.769-1.485,14.855
				c3.838,2.201,10.129,1.715,14.38,1.69c7.099-0.042,14.187,0.171,21.265-0.486c5.686-0.528,11.104-1.944,16.72-2.749
				c1.741-0.25,3.296-0.805,4.915-1.467c1.854-0.758,3.69-1.626,5.332-2.784c2.597-1.831,4.36-4.27,5.645-7.15
				c1.652-3.701,2.694-7.674,4.056-11.485c1.925-5.385,5.245-10.503,5.35-16.372c0.049-2.73,0.44-5.436-0.958-7.816
				c-1.15-1.959-3.383-3.127-4.422-5.177C378.146,451.831,378.423,448.929,378.75,446.729z"/>
		</g>
	</g>
	<path style="fill:#CC9E55;" d="M122.535,200.627c7.751-4.009,11.75-11.675,17.885-17.432c2.234-2.096,4.253-3.274,5.095-6.425
		c1.102-4.118,0.584-9.31,0.414-13.547c-0.186-4.632-1.655-10.762-5.933-13.296c-4.045-2.395-9.22-0.513-12.795,2.042
		c-5.337,3.814-9.973,9.527-14.931,13.887c-2.819,2.479-6.977,5.499-8.76,8.857c-0.564,1.062-0.63,2.092-0.837,3.251
		c-0.749,4.204-1.514,8.574-3.493,12.404c-1.346,2.604-3.92,5.76-2.7,8.93c1.28,3.326,5.851,3.564,8.86,3.653
		C111.172,203.125,117.252,203.36,122.535,200.627z"/>
	<path style="fill:#CC9E55;" d="M75.891,198.789c-0.076,3.767-1.47,8.728-5.662,9.345c-2.704,0.398-9.244,0.932-10.823-1.835
		c-1.69-2.963,1.08-5.57,2.454-7.977c1.96-3.435,4.848-7.337,9.413-7.228C75.186,191.188,75.956,195.567,75.891,198.789z"/>
	<g>
		<defs>
			<rect id="SVGID_00000005258231745057228820000014268774510402233512_" width="289.272" height="249.75"/>
		</defs>
		<clipPath id="SVGID_00000093179105183710724850000005505408153178623109_">
			<use xlink:href="#SVGID_00000005258231745057228820000014268774510402233512_"  style="overflow:visible;"/>
		</clipPath>
		<path style="clip-path:url(#SVGID_00000093179105183710724850000005505408153178623109_);fill:#5B5F50;" d="M24.653,31.69
			C44.163,7.595,64.858-4.413,94.438-12.441c23.178-6.29,49.016-6.48,72.332-1.952C202.844-7.387,239.1-6.479,273.983,7.696
			c-4.813,3.621-12.235,4.796-18.475,5.904c8.553,3.068,22.801,6.597,27.127,14.781C215.447,32.382,143.558,11.434,79.457-7.442
			C143.41,8.079,211.232,33.779,262.374,76.052c-4.631-0.565-9.078-2.544-13.321-4.588c4.176,3.561,8.941,7.491,12.428,11.837
			c-1.162,0.289-2.237-0.074-3.334,0.344c5.238,5.535,11.379,11.478,15.764,17.078c-13.566,1.599-34.074-11.132-46.814-15.782
			c-19.64-7.168-37.565-13.094-55.462-23.931c-31.153-18.863-56.05-45.317-87.128-64.054c21.168,16.405,45.178,38.344,66.263,57.064
			c35.509,31.527,56.988,74.038,72.197,118.95c-3.191-7.398-9.851-16.53-16.515-21.783c0.6,8.093,4.205,15.97,7.494,23.196
			c-4.575-3.081-8.806-7.913-13.389-10.954c2.131,3.587,4.881,7.887,5.965,12.229c-31.072-15.935-63.6-45.723-82.237-75.683
			c-10.862-17.462-15.995-38.192-24.951-56.56C94.413,33.324,92.205,22.4,86.234,12.986C81.497,5.518,75.695,0.043,73.065-8.443
			c6.523,33.193,21.225,62.675,21.289,96.979c0.034,18.21-3.668,35.636-4.743,53.797c-0.634,10.702,3.542,33.584-7.696,39.71
			c-7.287-8.423-6.605-21.801-6.242-32.386c-1.091,7.108,1.678,17.891-4.806,22.015c-0.042-3.611-1.636-7.332-1.802-10.733
			c-1.165,5.26-0.115,10.166-3.345,13.743C48.27,149.389,48.736,100.485,50.949,70.973c1.149-15.33,5.688-28.474,11.247-42.621
			c4.64-11.808,5.014-23.804,8.197-34.943c2.755,13.856-9.255,31.859-14.603,44.125c-9.112,20.898-19.851,42.961-33.934,60.95
			c-8.956,11.441-20.22,23.912-31.29,33.458c-5.739,4.949-12.647,7.713-16.132,14.821c3.403-7.06,7.694-14.235,9.039-21.902
			c-1.466,3.382-4.437,5.934-6.215,8.795c-0.13-4.316-0.217-8.688-0.259-13.006c-5.588,2.092-8.521,8.532-10.959,13.861
			c-1.961-18.601,14.199-41.001,23.198-56.519C-0.9,60.98,12.393,46.831,24.653,31.69z"/>
	</g>
	<g>
		<defs>
			<rect id="SVGID_00000115476269521560126170000002151173702289189288_" x="353.898" y="0.136" width="134.97" height="71.114"/>
		</defs>
		<clipPath id="SVGID_00000072246568531631157670000016797431175393484974_">
			<use xlink:href="#SVGID_00000115476269521560126170000002151173702289189288_"  style="overflow:visible;"/>
		</clipPath>
		<path style="clip-path:url(#SVGID_00000072246568531631157670000016797431175393484974_);fill:#CC9E55;" d="M429.375-4.125
			c-2.122,1.362-3.464,3.296-5.286,5.018c-5.192,4.906-11.819,7.918-17.446,12.277c-5.94,4.602-11.788,9.424-17.62,14.147
			c-5.732,4.642-8.959,9.83-13.514,15.494c-1.658,2.062-10.982,9.236-9.17,13.176c1.031,2.244,7.674,1.897,9.034,1.916
			c8.79,0.124,17.51-0.937,25.898-3.672c5.7-1.858,11.752-4.514,17.059-7.419c3.806-2.083,6.594-5.232,10.113-7.691
			c4.361-3.047,10.07-3.888,13.637-8.021c1.273-1.266,2.155-2.781,2.645-4.544c1.691-2.334,3.732-4.317,6.121-5.949
			c8.317-6.426,18.429-8.072,26.836-14.138c4.491-3.24,9.874-6.494,11.186-12.467c-3.591-2.147-10.501,0.955-14.277,1.623
			C469.654-3.501,464.762-2.912,459.75-3L429.375-4.125z"/>
	</g>
	<g>
		<defs>
			<rect id="SVGID_00000114050103376168004010000009620085305881165974_" x="560.325" width="175.749" height="86.114"/>
		</defs>
		<clipPath id="SVGID_00000114036401403186150140000016917712763109256886_">
			<use xlink:href="#SVGID_00000114050103376168004010000009620085305881165974_"  style="overflow:visible;"/>
		</clipPath>
		<path style="clip-path:url(#SVGID_00000114036401403186150140000016917712763109256886_);fill:#7F5548;" d="M708.112-8.823
			c5.965,0.405,11.813,1.549,14.74,6.04c3.028,4.645,3.38,10.898,0.095,15.191c-3.629,4.741-5.036,10.924-12.166,10.786
			c-5.262-0.102-10.889-0.564-16.101-0.076c-3.167,0.296-6.34,2.487-8.696,4.485c-5.861,4.971-13.285,5.303-20.455,7.531
			c-8.028,2.497-15.305,6.809-23.389,9.331c-8.544,2.665-16.008,7.351-24.209,10.794c-5.288,2.219-10.122,3.733-15.83,3.569
			c-3.954-0.113-5.229-1.662-8.348-4.555c-4.252-3.944-5.355-6.528-5.112-12.326c0.203-4.84,2.236-8.967,4.592-13.156
			c3.42-6.08,8.425-10.445,11.886-16.506c2.864-5.015,7.301-7.846,11.067-11.955c2.22-2.422,3.735-5.35,5.799-7.868
			c2.333-2.847,4.909-5.385,7.116-8.348c1.409-1.893,2.789-3.305,4.585-4.736c1.092-0.87,1.269-1.036,2.545-1.564
			c1.036-0.429,2.059-0.538,3.092-1.099c0.84-0.455,4.857,1.194,5.733,1.41c4.827,1.187,9.654,2.374,14.481,3.561
			c11.928,2.933,23.925,6.625,36.03,8.712C699.003-9.012,703.592-9.13,708.112-8.823z"/>
	</g>
	<g>
		<defs>
			<rect id="SVGID_00000003066121843865209180000010660318704431916216_" x="456" y="0.136" width="189.748" height="111.614"/>
		</defs>
		<clipPath id="SVGID_00000132058847628486884150000011540593039221207952_">
			<use xlink:href="#SVGID_00000003066121843865209180000010660318704431916216_"  style="overflow:visible;"/>
		</clipPath>
		<g style="clip-path:url(#SVGID_00000132058847628486884150000011540593039221207952_);">
			<path style="fill:#5B5F50;" d="M607.224,8.289c-0.13-0.044-0.27-0.071-0.416-0.088c-0.342,0.131-0.686,0.257-1.029,0.383
				C606.26,8.484,606.74,8.377,607.224,8.289z"/>
			<path style="fill:#5B5F50;" d="M632.94-6.493c-1.363,1.052-1.675,0.258-2.968,0.565c-1.448,0.344-2.767,0.708-4.171,1.348
				c-5.934,2.703-11.664,5.661-17.883,7.667c-6.955,2.243-12.216,2.333-19.27,2.161c-9.841-0.24-19.239,1.74-28.939,3.195
				c-4.475,0.671-9,1.632-13.389,2.757c-1.97,0.505-7.485,1.435-8.991,3.272c1.415,5.458,11.813,7.743,16.167,8.034
				c3.585,0.239,6.819-1.457,10.363-1.932c3.751-0.502,6.956-2.348,10.552-3.57c7.053-2.396,13.826-5.584,21.19-6.979
				c2.558-0.485,5.08-0.538,7.595-1.173c1.007-0.254,2.512-0.785,3.612-0.651c1.257-0.483,2.503-1.016,3.734-1.666
				c2.708-1.43,5.366-1.694,8.245-2.66c3.729-1.252,6.56-4.011,10.348-5.264c2.754-0.911,6.278-0.342,8.781-1.65L632.94-6.493z"/>
			<path style="fill:#5B5F50;" d="M554.596,32.939c-3.727,2.999-8.727,4.78-13.134,6.551c-3.19,1.283-5.947,0.736-9.219,0.92
				c-6.722,0.378-13.908,1.116-20.46,2.556c-4.103,0.902-7.789,2.733-11.393,4.818c-1.504,0.87-2.69,2.281-4.195,3.196
				c-1.232,0.749-3.244,1.202-3.895,2.275c4.831,2.631,12.083,2.015,17.4,1.971c4.357-0.036,9.209-1.137,13.623-2.697
				c-6.278,3.719-12.581,7.572-18.175,12.009c-4.831,3.832-9.625,7.601-14.199,11.762c-3.206,2.916-7.116,5.101-10.514,7.837
				c-1.288,1.037-8.325,5.066-8.476,7.205c3.947,2.407,9.576,0.696,13.646-0.401c2.208-0.595,4.143-2.082,6.225-3.029
				c2.518-1.146,4.634-2.229,6.68-4.147c3.505-3.286,5.094-7.719,8.283-11.129c1.666-1.781,2.94-3.851,4.693-5.541
				c2.012-1.939,4.504-3.114,6.479-5.133c2.762-2.824,5.229-5.399,8.599-7.509c3.861-2.417,8.002-4.029,11.882-6.501
				c4.013-2.556,8.385-3.944,12.011-7.052c0.394-0.338,0.785-0.683,1.178-1.023c-3.057,3.656-5.175,9.017-7.457,13.137
				c-3.598,6.498-5.405,12.951-6.912,20.142c-1.186,5.66,3.363,6.013,8.089,4.107c5.805-2.341,6.353-6.683,7.6-12.1
				c1.414-6.146,2.829-12.291,4.243-18.437c0.467-2.028,1.556-4.56,1.579-6.6c0.019-1.659-0.55-2.477-0.238-4.279
				c0.443-2.563,0.591-2.938,2.624-4.114c2.744-1.588,5.713-3.105,8.207-5.092c2.824-2.25,4.939-3.723,8.143-5.484
				c2.354-1.293,5.052-2.308,7.308-3.727c-0.771,3.234-3.427,5.661-5.012,8.503c-2.29,4.108-3.872,8.917-5.641,13.282
				c-1.572,3.878-3.122,11.057,3.109,11.802c1.96,0.234,5.918-2.533,7.303-3.66c2.012-1.637,2.154-3.232,2.682-5.78
				c1.051-5.069,1.881-9.742,1.731-14.938c-0.102-3.544-2.45-6.431-0.718-9.963c0.819-1.671,1.109-1.291,2.721-1.89
				c3.263-1.213,6.185-2.996,9.425-4.266c1.803-0.707,3.591-1.293,5.358-1.938c-13.365,2.76-25.568,10.024-37.682,15.888
				C563.06,26.91,558.886,29.487,554.596,32.939z M544.517,41.381c-1.297,0.779-2.63,1.492-3.979,2.173
				c2.354-2.132,6.837-6.598,10.219-5.579C548.392,38.446,546.533,40.171,544.517,41.381z M555.92,36.161
				c0.864-0.752,1.724-1.504,2.602-2.252C557.731,34.753,556.834,35.469,555.92,36.161z"/>
		</g>
	</g>
	<g>
		<defs>
			<rect id="SVGID_00000116920664873099993990000007009709160357129911_" y="273.5" width="271.5" height="226.5"/>
		</defs>
		<clipPath id="SVGID_00000108301773083569798580000009764315861186168240_">
			<use xlink:href="#SVGID_00000116920664873099993990000007009709160357129911_"  style="overflow:visible;"/>
		</clipPath>
		<g style="clip-path:url(#SVGID_00000108301773083569798580000009764315861186168240_);">
			<path style="fill:#7F5548;" d="M18.772,372.072c-0.242,1.338-0.153,2.803,0.054,4.303
				C18.95,374.945,18.957,373.511,18.772,372.072z"/>
			<path style="fill:#7F5548;" d="M51.393,333.648c-0.068,1.978-0.079,3.913-0.136,5.849
				C51.504,337.533,51.571,335.578,51.393,333.648z"/>
			<path style="fill:#7F5548;" d="M143.024,281.754c0.335-0.251,0.671-0.499,1.006-0.755
				C143.642,281.213,143.32,281.474,143.024,281.754z"/>
			<path style="fill:#7F5548;" d="M238.47,309.387c-4.648,0.676-7.968,1.8-12.133,3.866c-4.564,2.264-8.272,5.599-12.994,7.516
				c-7.063,2.866-14.931,3.822-21.593,7.49c-1.78,0.98-3.493,1.514-5.379,2.188c-2.633,0.941-4.428,2.583-6.689,4.125
				c-4.075,2.778-8.747,4.413-12.878,7.093c-9.64,6.254-20.643,9.185-30.491,14.964c-8.361,4.907-17.693,7.793-25.899,12.917
				c-8.035,5.017-13.472,12.474-19.547,19.459c-3.012,3.463-6.966,6.476-10.321,9.639c-2.558,2.411-5.149,3.951-7.919,5.946
				c-3.754-3.008,0.962-11.486,2.504-14.395c3.859-7.28,7.878-14.487,12.247-21.472c7.557-12.081,14.405-24.444,22.45-36.194
				c4.133-6.036,9.319-11.274,13.41-17.292c3.155-4.64,6.288-9.281,9.442-13.92c2.995-4.405,5.809-8.991,7.647-14.003
				c0.719-1.961,1.183-4.131,2.698-5.559c-4.096,3.059-8.24,5.787-12.126,9.208c-3.739,3.521-7.746,6.708-12.019,9.563
				c-4.102,2.362-8.15,4.813-12.145,7.351c-7.459,5.361-13.731,10.775-19.359,18.07c-10.706,13.877-15.99,31.489-20.685,48.093
				c-2.589,9.155-6.437,17.81-6.319,27.362c0.047,3.78-1.248,5.793-3.317,8.92c-1.279,1.933-2.697,3.929-4.151,5.759l-5.151,2.41
				c-0.107-4.44,0.252-11.449,0.252-10.072C48.006,404.369,48,400.32,48,396.272c0-9.409-1.408-19.802,1.125-28.944
				c1.972-7.116,0.71-14.478,1.687-21.754c0.276-2.057,0.385-4.068,0.445-6.077c-1.042,8.274-5.35,16.687-8.654,23.934
				c-1.838,4.03-1.937,7.097-2.442,11.276c-0.252,2.089-1.072,4.019-1.223,6.107c-0.432,5.977-1.06,11.499-1.063,17.59
				c-0.002,3.443-0.249,7.876,0.573,10.717c0.394,1.361,0.803,2.422,0.641,4.081c-0.274,2.811-1.45,5.462-2.343,8.112
				c-1.143,3.392-1.778,6.837-2.577,10.318c-0.898,3.916-0.47,7.451-2.527,10.996c-1.767,3.046-3.273,6.148-4.963,9.209
				c-1.337,2.422-3.783,3.566-5.711,5.451c-2.018,1.971-3.88,4.505-5.419,6.888c-0.858,1.329-1.471,3.792-2.478,4.692
				c0.07-2.878-0.354-5.844,0.673-8.557c1.016-2.685,2.326-5.247,3.332-7.974c0.849-2.302,2.515-4.13,3.454-6.242
				c0.735-1.652,1.162-4.423,1.502-6.198c1.228-6.416,0.589-12.778,1.235-19.199c0.603-5.996-0.627-11.887-1.139-17.93
				c-0.547-6.461-2.099-12.727-2.263-19.201c-0.057-2.227-0.703-4.756-1.038-7.193c-0.482,5.56-2.828,10.72-4.679,15.912
				c-1.667,4.675-2.536,9.346-3.052,14.274c-0.427,4.072-0.952,8.13-1.383,12.201c-0.324,3.059-0.536,6.127-0.601,9.202
				c-0.101,4.771,0.119,9.532-0.28,14.295c-1.243,14.849-7.122,30.327-15.964,42.375c-1.756,2.393-3.163,4.959-4.85,7.396
				c-3.017,4.357-7.354,7.891-9.713,12.71c-2.658,5.43-5.581,11.502-5.643,17.682c2.785-1.206,5.471-1.87,7.937-3.744
				c0.363-0.276,0.699-0.574,1.035-0.87c-1.265,1.439-2.338,2.891-3.383,4.791c0.313-0.569,0.905-1.093,1.316-1.591
				c1.145-1.383,2.29-2.767,3.435-4.15c1.335-1.614,2.583-3.195,4.181-4.544c0.591-0.499,0.856-0.978,1.093-1.713
				c0.315-0.975,0.797-1.869,1.221-2.811c0.936-2.078,2.352-3.959,3.115-6.115c0.781-2.208,1.561-4.459,2.759-6.487
				c0.65-1.101,1.141-2.255,1.967-3.248c0.959-1.153,2.04-2.083,2.861-3.371c0.92-1.442,1.985-3.405,3.705-3.97
				c1.363-0.447,3.09-0.293,4.499-0.264c2.236,0.046,4.41,0.397,6.663,0.388c2.525-0.01,5.066-0.079,7.589-0.011
				c3.379,0.091,6.652,1.05,9.995,1.447c4.429,0.527,8.945,0.609,13.389,0.283c5.033-0.369,9.764-1.599,14.565-3.084
				c6.009-1.858,11.707-4.135,16.641-8.169c1.771-1.448,3.37-3.108,4.73-4.952c0.477-0.647,2.009-2.781,1.692-3.957
				c-2.782,0.091-5.567,1.333-8.231,2.078c-3.97,1.109-7.973,2.086-11.93,3.24c-4.172,1.217-8.283,2.69-12.5,3.755
				c-3.266,0.825-6.426,0.801-9.751,0.752c-4.072-0.06-8.07,0.022-12.13,0.37c-3.075,0.264-6.092,0.206-9.163,0.411
				c-2.683,0.179-5.723,0.776-8.22,1.836c-1,0.424-2.211,0.854-2.852,1.788c0.364-0.513,0.622-1.232,1.003-1.696
				c0.541-0.659,1.48-0.976,2.119-1.563c0.973-0.894,1.452-2.005,2.313-2.945c0.656-0.716,1.318-1.15,1.914-1.95
				c0.642-0.862,1.076-1.735,1.593-2.665c0.621-1.117,1.51-1.91,2.273-2.912c0.849-1.115,1.655-2.048,2.831-2.85
				c1.712-1.167,3.434-2.125,4.928-3.59c0.421-0.413,0.826-0.989,1.294-1.334c0.437-0.323,0.93-0.348,1.234-0.783
				c0.423-0.604,0.048-1.04,0.801-1.285c0.191-0.062,1.162-0.015,1.424,0.016c1.411,0.166,2.618,0.759,4.073,0.778
				c0.643,0.009,1.291-0.048,1.934-0.023c0.795,0.031,1.457,0.305,2.236,0.408c2.229,0.297,4.795-0.013,7.025-0.018
				c5.686-0.013,11.362,0.249,17.044,0.406c6.248,0.172,12.473,1.031,18.73,0.653c2.026-0.227,4.054-0.435,6.083-0.623
				c2.435-0.098,4.871-0.102,7.306-0.009c3.776-0.041,6.932-0.67,10.496-1.934c9.099-3.228,18.343-6.649,27.057-10.838
				c3.296-1.585,6.806-2.922,9.969-4.77c2.89-2.181,5.937-4.127,9.143-5.836c7.41-4.022,14.554-8.467,21.432-13.335
				c1.674-1.663,3.325-3.349,4.951-5.058c1.39-1.461,2.798-2.904,4.223-4.33c1.505-1.75,3.888-4.482,4.018-6.929
				c-1.439,0.143-2.774,0.893-4.01,1.572c-2.089,1.147-4.15,2.36-6.231,3.531c-2.534,1.426-5.416,2.494-7.78,4.2
				c-1.706,1.231-3.966,1.32-5.97,1.848c-4.745,1.251-9.248,3.226-13.984,4.502c-5.082,1.369-10.356,2.072-15.366,3.679
				c-4.731,1.517-9.62,2.114-14.348,3.625c-3.709,1.185-7.394,2.064-11.243,2.608c-2.499,0.353-5.002,0.619-7.49,1.052
				c-4.225,0.734-8.352,1.894-12.46,3.113c-5.379,1.596-10.611,4.598-16.317,4.521c-5.103-0.068-10.319,0.211-15.294,1.451
				c-3.773,0.94-7.554,1.593-11.379,2.249c-2.445,0.419-4.412,1.486-6.704,2.288c0.794-0.566,1.154-1.42,1.716-2.185
				c0.665-0.905,1.413-1.69,2.002-2.664c0.497-0.823,0.923-1.608,1.515-2.367c0.769-0.985,1.308-2.05,2.018-3.069
				c1.076-1.544,2.425-2.838,3.693-4.219c1.31-1.426,2.5-2.934,3.721-4.437c0.885-1.089,1.586-2.534,2.619-3.481
				c0.76-0.697,1.261-0.706,1.84-1.591c0.355-0.542,0.582-0.97,1.269-1.123c0.767-0.171,1.746,0.003,2.538,0.003
				c2.995,0,5.878,0.382,8.873,0.374c2.045-0.005,3.978-0.07,6.01-0.291c3.34-0.363,6.849-0.106,10.205-0.077
				c1.796,0.016,3.566,0.075,5.352-0.156c1.249-0.33,2.515-0.565,3.797-0.705c1.573-0.259,3.159-0.372,4.759-0.338
				c5.268-0.413,10.467-1.901,15.631-2.999c4.724-1.004,8.793-3.335,13.126-5.305c5.631-2.561,11.213-5.218,16.834-7.804
				c3.687-1.696,7.101-3.876,10.536-6.016c3.25-2.025,6.578-3.874,9.9-5.778c2.047-1.173,4.137-2.418,5.884-4.026
				c0.707-0.651,2.143-2.312,1.878-3.496c-1.774,0.058-3.449,0.865-5.169,1.246c-1.726,0.383-2.967,1.271-4.562,1.996
				c-2.12,0.964-4.299,1.428-6.565,1.936c-5.654,1.269-11.023,3.745-16.684,4.902c-5.396,1.103-10.871,1.639-15.889,4.049
				c-5.021,2.412-10.345,3.932-15.487,6.049c-2.65,1.091-4.867,2.79-7.643,3.627c-1.651,0.498-3.277,1.08-4.926,1.577
				c-5.537,1.668-10.992,1.201-16.671,1.531c-3.201,0.186-6.661,0.617-9.754,1.449c-2.543,0.771-5.024,1.706-7.443,2.805
				c-1.037,0.291-1.992,0.739-2.863,1.342c0.909,0.056,2.434-1.987,3.084-2.454c1.473-1.058,2.973-2.019,4.486-3.012
				c1.943-1.276,3.925-2.476,5.989-3.566c1.686-0.89,3.415-1.916,5.211-2.56c0.589-0.211,1.192-0.375,1.776-0.602
				c0.391-0.152,0.773-0.324,1.153-0.502c1.72-0.803,3.605-2.237,5.434-2.702c4.094-1.039,8.127-2.149,11.666-3.998
				c5.71-2.984,10.734-6.778,15.874-10.596c5.787-4.298,12.233-7.787,18.479-11.328c18.175-10.302,37.172-19.064,56.286-27.46
				c7.785-3.419,14.87-7.066,21.536-12.389c3.457-3.254,7.248-6.053,11.374-8.397c3.428-1.353,6.727-2.968,9.897-4.844
				c4.757-3.036,9.54-6.534,14.03-9.963c2.023-1.545,4.703-2.572,6.575-4.192C250.124,306.163,243.232,308.694,238.47,309.387z
				 M-10.894,508.002c-1.299,2.337-2.711,4.596-4.487,6.61C-13.75,512.532-12.361,510.246-10.894,508.002z M72.623,406.854
				c1.959-1.227,4.095-2.174,6.33-2.961L72.623,406.854z"/>
		</g>
	</g>
	<g>
		<defs>
			<rect id="SVGID_00000016072027081956952150000015793110391301760434_" x="510" y="303.738" width="240" height="196.512"/>
		</defs>
		<clipPath id="SVGID_00000012446388859671340630000002434826587048673439_">
			<use xlink:href="#SVGID_00000016072027081956952150000015793110391301760434_"  style="overflow:visible;"/>
		</clipPath>
		<g style="clip-path:url(#SVGID_00000012446388859671340630000002434826587048673439_);">
			<path style="fill:#5B5F50;" d="M696.459,461.726c0.137,0.253,0.282,0.498,0.41,0.759
				C696.747,462.2,696.609,461.951,696.459,461.726z"/>
			<path style="fill:#5B5F50;" d="M758.238,487.515c-0.844-1.046-4.056-1.172-5.23-1.852c-1.849-1.072-3.259-2.75-5.163-3.813
				c-4.777-2.669-10.021-5.12-9.221-11.345c0.436-3.393-0.245-6.878-0.169-10.328c0.093-4.174,0.459-8.368-0.17-12.52
				c-0.855-5.635-3.635-11.176-6.392-16.019c-1.775-3.117-2.651-7.18-3.984-10.542c-1.273-3.21-2.798-5.994-4.611-8.949
				c-1.871-3.051-3.759-5.993-4.849-9.443c-0.566-3.259-1.348-6.465-2.347-9.617c-0.915-1.66-1.598-3.407-2.047-5.24
				c-1.417-4.754-2.913-9.418-4.632-14.076c-1.515-4.106-3.683-7.72-5.342-11.745c-4.727-11.465-11.87-21.239-17.682-32.173
				c-1.558-2.93-2.966-5.994-4.469-8.952c-1.444-2.841-1.407-6.801-3.603-9.163c-1.315,2.025-0.452,5.022-0.427,7.347
				c0.025,2.381,0.021,4.761,0.019,7.142c-0.004,6.157-0.21,12.354-0.05,18.508c0.154,5.921,0.798,11.845,1.05,17.769
				c0.273,6.428,3.716,11.697,6.036,17.552c3.944,9.955,5.783,20.886,10.495,30.516c2,4.087,4.111,8.474,6.698,12.227
				c2.001,2.903,4.904,5.1,6.903,7.95c3.512,5.006,5.814,10.779,9.091,15.85c1.829,2.83,2.342,6.172,3.908,9.095
				c0.639,1.193,1.793,2.016,2.531,3.117c0.62,0.925,0.84,2.077,1.37,3.035c1.433,2.588,3.332,5.032,4.768,7.696
				c1.88,3.488,2.967,6.765,4.079,10.368c-2.094,0.616-7.764-9.923-9.028-11.367c-3.657-4.178-8.81-7.787-13.316-10.943
				c-2.2-1.54-4.561-2.506-6.824-3.907c-1.081-0.669-1.899-1.769-2.965-2.416c-1.339-0.813-2.829-0.898-4.049-1.96
				c-0.761-0.662-1.247-1.555-1.977-2.239c-2.301-2.156-5.031-3.632-7.437-5.574c-1.385-1.118-2.945-2.395-4.216-3.652
				c-2.718-2.689-4.169-7.356-6.128-10.63c-3.89-6.502-7.396-13.366-11.652-19.622c-4.926-7.241-11.016-13.707-16.274-20.712
				c-4.596-6.123-6.861-13.195-11.893-19.011c-3.793-4.384-8.152-7.817-12.902-11.141c-6.021-4.213-12.15-8.528-18.402-12.364
				c-6.902-4.235-14.913-6.77-22.066-10.703c-6.36-3.497-12.662-7.1-19.017-10.608c-1.917-1.058-3.951-1.973-5.809-3.133
				c-0.991-0.619-3.396-3.11-4.912-2.588c-0.855,3.171,0.711,6.22,1.948,9.07c1.939,4.467,4.141,8.785,6.73,12.918
				c3.471,5.539,7.219,10.556,11.41,15.552c7.675,9.15,16.163,17.513,25.785,24.707c11.111,8.307,22.047,16.801,33.028,25.277
				c5.322,4.108,10.201,8.897,13.705,14.699c2.617,4.333,4.885,9.223,8.226,13.007c3.036,3.439,6.397,6.599,10.147,9.248
				c-1.141-0.551-2.288-1.089-3.443-1.605c-3.963-1.77-8.229-3.047-12.105-5.013c-4.689-2.379-9.653-3.796-14.167-6.358
				c-3.572-2.027-8.045-2.584-12.026-3.206c-8.051-1.258-16.171-2.159-24.184-3.601c-8.896-1.601-17.837-3.984-26.807-5.093
				c-4.491-0.555-8.972-0.719-13.425-1.613c-4.689-0.942-9.926-1.264-14.503-2.602c-4.629-1.353-8.471-2.864-13.263-3.459
				c-3.509-0.436-7.276-2.323-10.85-1.797c1.979,4.851,9.051,8.018,13.23,10.112c6.416,3.213,13.344,6.05,20.062,8.595
				c9.706,3.677,19.573,6.86,29.764,8.833c7.657,1.483,14.722,3.404,22.115,5.778c5.471,1.757,10.924,3.921,16.477,5.277
				c2.034,0.497,4.05,1.274,6.077,1.738c2.543,0.582,5.186-0.071,7.758,0.352c3.304,0.543,6.318,1.466,9.629,1.683
				c7.403,0.485,16.132,2.515,22.929,5.119c2.428,0.93,5.627,1.441,8.189,1.654c2.477,0.206,4.706,0.837,7.179,0.935
				c2.542,0.1,4.08,0.993,6.359,1.948c1.241,0.52,2.546,0.998,3.864,1.46c0.248,0.222,0.482,0.467,0.686,0.774
				c-0.119-0.219-0.229-0.445-0.355-0.657c2.141,0.741,4.321,1.427,6.404,2.076c4.742,1.478,8.141,3.986,12.37,5.898
				c2.857,1.292,5.53,3.208,8.394,4.592c2.418,1.169,4.661,2.493,6.782,4.129c-4.842-0.898-9.439-2.717-14.177-4.057
				c-5.848-1.654-11.337-1.94-17.373-2.462c-6.836-0.591-13.691-1.896-20.506-2.758c-16.104-2.036-31.768-0.952-47.92-0.372
				c-8.243,0.296-16.177,1.936-24.273,3.426c-8.947,1.647-17.68,1.053-26.693,1.293c-4.308,0.115-8.317,1.35-12.552,1.86
				c-2.883,0.347-5.691,0.178-8.591,0.157c-2.737-0.019-6.08-0.574-8.755-0.047c11.463,5.516,24.253,6.068,36.646,7.773
				c7.446,1.024,14.813,3.137,22.32,3.714c4.879,0.375,9.68-0.08,14.542,0.535c4.5,0.57,8.827,1.42,13.39,1.525
				c4.058,0.093,8.135-0.032,12.195-0.068c3.863-0.035,7.501,0.91,11.358,1.032c6.182,0.196,13.162,0.605,19.207-0.614
				c6.705-1.352,13.488-1.85,20.24-3.015c2.741-0.473,5.141-2.126,7.845-2.259c3.509-0.173,6.573-0.647,10.041-0.351
				c3.42,0.292,6.856,0.329,10.286,0.39c5.377,0.095,12.156,0.195,17.308,1.931c2.197,0.741,4.313,2.043,6.566,2.907
				c2.377,0.912,5.755,1.644,7.532,3.551C758.478,490.419,759.182,488.684,758.238,487.515z"/>
			<path style="fill:#CC9E55;" d="M562.577,325.434c4.212,5.208,8.891,10.079,14.068,14.343c2.534,2.087,5.199,4.039,8.035,5.697
				c3.026,1.769,6.244,3.186,9.357,4.792c6.142,3.169,11.472,7.545,16.432,12.321c5.162,4.971,10.088,10.191,15.04,15.368
				c5.023,5.251,9.819,10.725,14.544,16.244c4.753,5.552,9.459,11.172,13.898,16.979c2.118,2.771,4.125,5.643,5.746,8.738
				c1.604,3.062,2.827,6.311,4.6,9.286c3.098,5.197,7.455,9.503,12.23,13.164c11.884,9.11,26.694,13.681,38.202,23.384
				c0.205,0.173,0.502-0.114,0.298-0.298c-4.921-4.472-10.365-8.005-16.154-11.246c-5.701-3.192-11.446-6.293-16.89-9.918
				c-5.26-3.502-10.307-7.454-14.16-12.514c-4.122-5.413-6.115-12.029-9.969-17.624c-3.992-5.797-8.659-11.167-13.173-16.558
				c-4.667-5.574-9.444-11.056-14.327-16.441c-4.887-5.39-9.769-10.768-14.836-15.991c-4.701-4.846-9.455-9.706-14.968-13.642
				c-3.221-2.299-6.694-4.036-10.231-5.782c-3.454-1.706-6.763-3.625-9.864-5.917c-6.146-4.541-11.273-10.23-16.883-15.376
				C562.891,323.816,562.016,324.741,562.577,325.434z"/>
			<path style="fill:#CC9E55;" d="M529.388,410.839c20.246,6.43,40.54,12.701,60.861,18.893c9.982,3.041,19.945,6.304,30.178,8.411
				c10.107,2.08,20.397,3.226,30.62,4.573c11.855,1.562,23.711,3.122,35.568,4.672c0.769,0.101,0.961-1.259,0.185-1.366
				c-10.529-1.453-21.059-2.9-31.59-4.342c-10.253-1.405-20.571-2.574-30.762-4.381c-10.281-1.823-20.239-4.896-30.217-7.912
				c-10.124-3.06-20.244-6.136-30.387-9.134c-11.42-3.375-22.838-6.751-34.277-10.062
				C529.149,410.071,528.977,410.709,529.388,410.839z"/>
			<path style="fill:#CC9E55;" d="M682.319,332.79c2.67,11.755,5.931,23.403,9.004,35.059c1.395,5.29,2.497,10.885,4.705,15.91
				c1.028,2.34,2.493,4.378,4.242,6.233c1.728,1.832,3.654,3.506,5.227,5.478c3.094,3.876,4.735,8.73,6.119,13.425
				c1.476,5.006,2.847,9.987,4.869,14.812c2.101,5.012,4.655,9.817,7.649,14.353c3.039,4.604,6.289,9.006,6.885,14.677
				c0.314,2.988,0.176,6.006,0.547,8.992c0.335,2.697,0.971,5.359,1.913,7.909c1.836,4.97,4.807,9.562,8.719,13.148
				c0.406,0.372,1.003-0.216,0.608-0.608c-3.586-3.547-6.461-7.701-8.322-12.402c-0.887-2.242-1.551-4.582-1.929-6.964
				c-0.434-2.735-0.427-5.502-0.561-8.261c-0.129-2.666-0.187-5.359-1.076-7.9c-0.819-2.342-2.031-4.529-3.349-6.623
				c-2.863-4.552-5.527-9.145-7.703-14.073c-2.138-4.843-3.673-9.876-5.116-14.96c-1.309-4.614-2.647-9.303-5.091-13.467
				c-1.215-2.069-2.702-3.949-4.424-5.618c-1.914-1.854-4.166-3.399-5.775-5.552c-3.203-4.285-4.218-10.039-5.677-15.074
				c-3.727-12.863-6.976-25.844-10.558-38.744C683.061,331.957,682.185,332.202,682.319,332.79z"/>
			<path style="fill:#CC9E55;" d="M568.417,476.96c11.511,2.573,23.39,3.984,35.163,4.619c11.899,0.642,23.786,0.285,35.64-0.885
				c6.019-0.594,12.032-1.2,18.079-1.426c5.971-0.224,11.949-0.212,17.923-0.175c12.173,0.075,24.346,0.121,36.518,0.291
				c6.257,0.087,12.562,0.014,18.803,0.542c5.794,0.49,11.748,1.776,16.71,4.944c0.74,0.472,1.37-0.666,0.678-1.16
				c-8.539-6.097-19.663-5.767-29.702-5.958c-12.326-0.235-24.654-0.366-36.981-0.508c-12.095-0.139-24.123-0.241-36.176,0.939
				c-11.973,1.172-23.875,2.296-35.922,2.192c-13.67-0.118-27.128-1.617-40.588-3.941
				C568.221,476.373,568.069,476.882,568.417,476.96z"/>
		</g>
	</g>
</g>
</svg>
