<?xml version="1.0" encoding="utf-8"?>
<!-- Generator: Adobe Illustrator 27.5.0, SVG Export Plug-In . SVG Version: 6.00 Build 0)  -->
<svg version="1.1" xmlns="http://www.w3.org/2000/svg" xmlns:xlink="http://www.w3.org/1999/xlink" x="0px" y="0px"
	 viewBox="0 0 750 500" style="enable-background:new 0 0 750 500;" xml:space="preserve">
<g id="BACKGROUND">
	<rect x="0" style="fill:#F0DDDD;" width="750" height="500"/>
</g>
<g id="OBJECTS">
	<g>
		<defs>
			<path id="SVGID_1_" d="M0,0h750v500H0V0z"/>
		</defs>
		<clipPath id="SVGID_00000177466015099267311820000006165916325765951627_">
			<use xlink:href="#SVGID_1_"  style="overflow:visible;"/>
		</clipPath>
		<path style="clip-path:url(#SVGID_00000177466015099267311820000006165916325765951627_);fill:#93A181;" d="M750,500H0V379.182
			c74.027,0,129.063,89.873,248.385,97.77c78.586,5.201,82.82-7.303,140.975-7.303s134.133,23.629,191.4,4.185
			s63.934-46.624,169.24-72.855V500z"/>
		<g style="clip-path:url(#SVGID_00000177466015099267311820000006165916325765951627_);">
			<path style="fill:#B88476;" d="M587.308,469.019c-0.363-15.238,14.227-36.893,22.247-31.864
				C617.362,442.051,601.195,464.53,587.308,469.019z"/>
			<path style="fill:#B88476;" d="M561.455,474.577c-2.259-10.13-30.593-28.03-35.53-21.507
				C517.345,464.407,551.695,478.697,561.455,474.577z"/>
			<path style="fill:#B88476;" d="M566.615,443.986c10.33-8.998,16.717-43.753,5.474-44.289
				C559.862,399.114,559.529,433.947,566.615,443.986z"/>
			<path style="fill:#B88476;" d="M556.602,442.051c1.782-21.27-18.156-41.604-25.323-36.937
				C519.631,412.698,540.445,440.614,556.602,442.051z"/>
			<g>
				<path style="fill:#805858;" d="M592.777,526.426c-0.522,0-0.962-0.406-0.997-0.935c-2.943-44.958-50.487-102.325-50.968-102.899
					c-0.354-0.424-0.298-1.055,0.126-1.409c0.426-0.354,1.055-0.297,1.409,0.126c0.483,0.579,48.441,58.441,51.429,104.052
					c0.036,0.551-0.382,1.027-0.933,1.063C592.821,526.425,592.799,526.426,592.777,526.426z"/>
				<path style="fill:#805858;" d="M580.154,483.355c-0.117,0-0.236-0.021-0.352-0.063c-22.899-8.598-39.697-18.413-39.864-18.511
					c-0.476-0.28-0.635-0.893-0.355-1.369c0.28-0.475,0.893-0.637,1.369-0.355c0.163,0.097,16.414,9.59,38.711,18.045
					c1.937-3.838,10.454-20.363,18.679-30.774c0.345-0.433,0.972-0.506,1.405-0.165c0.434,0.343,0.507,0.972,0.165,1.405
					c-9.175,11.613-18.765,31.034-18.86,31.229C580.879,483.147,580.525,483.355,580.154,483.355z"/>
				<path style="fill:#805858;" d="M567.953,460.628c-0.43,0-0.826-0.277-0.957-0.709c-4-13.169,1.569-42.025,1.809-43.248
					c0.106-0.541,0.624-0.897,1.174-0.789c0.542,0.106,0.895,0.632,0.789,1.174c-0.058,0.294-5.713,29.589-1.857,42.281
					c0.16,0.529-0.138,1.087-0.666,1.248C568.147,460.615,568.049,460.628,567.953,460.628z"/>
			</g>
		</g>
		<g style="clip-path:url(#SVGID_00000177466015099267311820000006165916325765951627_);">
			<path style="fill:#805858;" d="M209.238,537.043c-0.283,0-0.563-0.119-0.762-0.352c-0.358-0.42-0.308-1.051,0.112-1.409
				c28.492-24.291,48.538-65.419,66.223-101.706c12.006-24.634,23.346-47.901,35.375-61.215c0.371-0.408,1.002-0.441,1.413-0.071
				c0.41,0.37,0.442,1.003,0.072,1.413c-11.84,13.103-23.12,36.247-35.062,60.749c-17.771,36.463-37.914,77.79-66.723,102.352
				C209.698,536.965,209.467,537.043,209.238,537.043z"/>
			<path style="fill:#805858;" d="M270.141,446.404c-0.195,0-0.39-0.057-0.56-0.171c-0.363-0.245-0.524-0.698-0.398-1.118
				c1.886-6.244,3.437-12.404,4.938-18.361c6.237-24.769,11.623-46.159,36.485-54.667c0.288-0.099,0.603-0.061,0.859,0.102
				c0.256,0.163,0.425,0.433,0.458,0.734c2.495,22.434-13.66,51.19-41.156,73.262C270.585,446.329,270.363,446.404,270.141,446.404z
				 M310.055,374.406c-22.816,8.44-28.003,29.043-33.995,52.836c-1.256,4.987-2.547,10.115-4.043,15.329
				C296.962,421.643,311.689,395.3,310.055,374.406z"/>
			<path style="fill:#805858;" d="M233.464,510.311c-0.107,0-0.215-0.017-0.322-0.054c-0.514-0.175-0.795-0.729-0.631-1.247
				c7.039-22.35,4.607-39.267,2.461-54.192c-2.527-17.58-4.915-34.185,8.683-55.504c0.168-0.263,0.45-0.433,0.761-0.459
				c0.312-0.021,0.618,0.097,0.826,0.329c0.858,0.955,20.653,24.39-10.838,110.471C234.255,510.059,233.872,510.311,233.464,510.311
				z M244.537,401.672c-12.304,20.057-10.114,35.284-7.587,52.86c1.572,10.937,3.296,22.926,1.426,37.331
				C257.919,430.232,247.643,406.831,244.537,401.672z"/>
			<path style="fill:#805858;" d="M233.464,509.31c30.217-50.974,85.556-72.482,85.556-72.482
				C307.36,474.305,276.26,473.07,233.464,509.31z"/>
		</g>
		<g style="clip-path:url(#SVGID_00000177466015099267311820000006165916325765951627_);">
			<g>
				<path style="fill:#E3C6AA;" d="M324.64,105.38c6.5-1.174,35.667,12.175,43.79,30.169l-0.004,0.026
					c-1.6,3.067-2.12,6.883-1.442,10.428l-0.595,4.301c-56.416,2.846-42.374-28.875-45.27-33.118
					C318.224,112.944,318.14,106.555,324.64,105.38z"/>
				<path style="fill:#805858;" d="M324.64,105.38c2.053-0.371,6.37,0.71,11.568,2.926c-6.305-0.124-6.817,10.105-1.584,13.252
					c-7.65,1.126-5.15,10.902,1.585,13.031c-9.727,7.681,5.532,16.452,30.348,14.507l-0.167,1.209
					c-56.416,2.846-42.374-28.875-45.27-33.118C318.224,112.944,318.14,106.555,324.64,105.38z"/>
				<g>
					<path style="fill:#805858;" d="M366.921,141.081c0.295,0,0.587-0.129,0.784-0.378c0.344-0.432,0.271-1.062-0.161-1.405
						c-0.913-0.726-22.504-17.786-35.598-19.633c-0.548-0.077-1.053,0.304-1.13,0.851c-0.077,0.547,0.304,1.053,0.851,1.13
						c12.56,1.771,34.413,19.043,34.633,19.218C366.484,141.011,366.703,141.081,366.921,141.081z"/>
					<path style="fill:#805858;" d="M366.736,145.307c0.432,0,0.83-0.281,0.959-0.716c0.157-0.529-0.146-1.086-0.675-1.243
						c-3.348-0.993-6.673-2.108-10.194-3.288c-7.283-2.441-14.815-4.965-22.836-6.455c-0.541-0.101-1.064,0.257-1.166,0.801
						c-0.101,0.543,0.258,1.065,0.801,1.166c7.883,1.463,15.348,3.965,22.565,6.384c3.538,1.186,6.88,2.306,10.262,3.309
						C366.546,145.293,366.642,145.307,366.736,145.307z"/>
					<path style="fill:#805858;" d="M367.687,137.717c0.117,0,0.234-0.041,0.33-0.124c0.207-0.182,0.228-0.498,0.046-0.706
						c-6.579-7.502-17.397-14.552-17.507-14.622c-0.23-0.15-0.541-0.084-0.691,0.147c-0.149,0.232-0.084,0.542,0.148,0.691
						c0.106,0.07,10.812,7.046,17.298,14.442C367.41,137.659,367.548,137.717,367.687,137.717z"/>
					<path style="fill:#805858;" d="M366.69,142.777c0.178,0,0.351-0.096,0.441-0.264c0.13-0.244,0.038-0.546-0.206-0.677
						c-0.129-0.069-13.006-6.945-22.25-11.03c-0.251-0.111-0.548,0.002-0.659,0.255c-0.112,0.252,0.002,0.548,0.255,0.66
						c9.21,4.07,22.055,10.928,22.184,10.997C366.529,142.758,366.61,142.777,366.69,142.777z"/>
					<path style="fill:#805858;" d="M367.088,147.08c0.27,0,0.491-0.214,0.5-0.485c0.008-0.276-0.209-0.506-0.484-0.515
						c-0.104-0.003-10.495-0.358-19.979-3.654c-0.263-0.092-0.546,0.047-0.637,0.308c-0.09,0.261,0.048,0.546,0.309,0.636
						c9.632,3.348,20.17,3.707,20.275,3.71C367.078,147.08,367.083,147.08,367.088,147.08z"/>
				</g>
			</g>
			<g>
				<path style="fill:#E3C6AA;" d="M348.15,189.295c16.27,0,16-23.92,18.82-24.61c-1.04-4.31-1.43-9.34-0.58-14.38
					c-12.34,0.62-21.3-0.41-27.81-2.44C319.89,158.865,335.86,189.295,348.15,189.295z"/>
				<path style="fill:#805858;" d="M348.15,189.295c16.27,0,16-23.92,18.82-24.61c-0.08-0.35-0.16-0.7-0.23-1.06h-0.01
					c-4.87,0.44-2.52,17.18-16.45,13.65c-13.93-3.53-16.01-26.48-10.73-29.12c-0.33-0.09-0.66-0.19-0.97-0.29
					C319.89,158.865,335.86,189.295,348.15,189.295z"/>
				<g>
					<path style="fill:#805858;" d="M338.885,163.201c4.081,0,10.414-2.524,16.063-4.775c4.486-1.788,8.723-3.476,11.041-3.603
						c0.275-0.015,0.487-0.25,0.472-0.526c-0.016-0.274-0.229-0.489-0.526-0.472c-2.481,0.135-6.792,1.853-11.356,3.671
						c-6.113,2.436-13.045,5.199-16.729,4.633c-0.278-0.038-0.528,0.145-0.57,0.418c-0.042,0.273,0.146,0.528,0.418,0.57
						C338.068,163.175,338.464,163.201,338.885,163.201z"/>
					<path style="fill:#805858;" d="M343.832,174.16c0.043,0,0.088-0.006,0.132-0.018c5.86-1.602,9.815-5.168,13.642-8.617
						c2.815-2.539,5.476-4.938,8.62-6.198c0.257-0.103,0.381-0.394,0.278-0.65c-0.103-0.257-0.393-0.382-0.65-0.278
						c-3.31,1.327-6.034,3.783-8.918,6.383c-3.738,3.371-7.604,6.857-13.235,8.396c-0.267,0.073-0.423,0.348-0.351,0.614
						C343.411,174.014,343.613,174.16,343.832,174.16z"/>
					<path style="fill:#805858;" d="M351.869,170.18c0.202,0,0.393-0.123,0.468-0.324c2.696-7.148,11.037-14.519,11.121-14.593
						c0.207-0.182,0.228-0.498,0.046-0.706c-0.182-0.208-0.497-0.228-0.706-0.046c-0.35,0.308-8.613,7.612-11.396,14.992
						c-0.098,0.258,0.033,0.547,0.291,0.644C351.75,170.17,351.81,170.18,351.869,170.18z"/>
					<path style="fill:#805858;" d="M350.395,160.177c0.192,0,0.376-0.112,0.458-0.3c2.599-5.943,5.845-9.04,5.878-9.07
						c0.2-0.189,0.21-0.505,0.021-0.707c-0.19-0.202-0.507-0.21-0.706-0.022c-0.139,0.13-3.423,3.254-6.109,9.399
						c-0.11,0.253,0.005,0.548,0.258,0.658C350.26,160.163,350.328,160.177,350.395,160.177z"/>
					<path style="fill:#805858;" d="M358.107,177.155c0.004,0,0.007,0,0.011,0c0.276-0.006,0.495-0.234,0.489-0.511
						c-0.15-7.021,3.836-15.197,3.876-15.279c0.122-0.248,0.021-0.548-0.228-0.67c-0.245-0.121-0.547-0.02-0.669,0.228
						c-0.169,0.343-4.135,8.479-3.979,15.743C357.613,176.938,357.835,177.155,358.107,177.155z"/>
				</g>
			</g>
			<g>
				<path style="fill:#E3C6AA;" d="M425.36,105.38c-6.5-1.174-35.667,12.175-43.79,30.169l0.004,0.026
					c1.6,3.067,2.12,6.883,1.442,10.428l0.595,4.301c56.416,2.846,42.374-28.875,45.27-33.118
					C431.776,112.944,431.86,106.555,425.36,105.38z"/>
				<path style="fill:#805858;" d="M425.36,105.38c-2.053-0.371-6.37,0.71-11.568,2.926c6.305-0.124,6.817,10.105,1.584,13.252
					c7.65,1.126,5.15,10.902-1.585,13.031c9.727,7.681-5.532,16.452-30.348,14.507l0.167,1.209
					c56.416,2.846,42.374-28.875,45.27-33.118C431.776,112.944,431.86,106.555,425.36,105.38z"/>
				<g>
					<path style="fill:#805858;" d="M383.079,141.081c-0.295,0-0.587-0.129-0.784-0.378c-0.344-0.432-0.271-1.062,0.161-1.405
						c0.913-0.726,22.504-17.786,35.598-19.633c0.548-0.077,1.053,0.304,1.13,0.851c0.077,0.547-0.304,1.053-0.851,1.13
						c-12.56,1.771-34.413,19.043-34.633,19.218C383.516,141.011,383.297,141.081,383.079,141.081z"/>
					<path style="fill:#805858;" d="M383.264,145.307c-0.432,0-0.83-0.281-0.959-0.716c-0.157-0.529,0.146-1.086,0.675-1.243
						c3.348-0.993,6.673-2.108,10.194-3.288c7.283-2.441,14.815-4.965,22.836-6.455c0.541-0.101,1.064,0.257,1.166,0.801
						c0.101,0.543-0.258,1.065-0.801,1.166c-7.883,1.463-15.348,3.965-22.565,6.384c-3.538,1.186-6.88,2.306-10.262,3.309
						C383.454,145.293,383.358,145.307,383.264,145.307z"/>
					<path style="fill:#805858;" d="M382.313,137.717c-0.117,0-0.234-0.041-0.33-0.124c-0.207-0.182-0.228-0.498-0.046-0.706
						c6.579-7.502,17.397-14.552,17.507-14.622c0.23-0.15,0.541-0.084,0.691,0.147c0.149,0.232,0.084,0.542-0.148,0.691
						c-0.106,0.07-10.812,7.046-17.298,14.442C382.59,137.659,382.452,137.717,382.313,137.717z"/>
					<path style="fill:#805858;" d="M383.31,142.777c-0.178,0-0.351-0.096-0.441-0.264c-0.13-0.244-0.038-0.546,0.206-0.677
						c0.129-0.069,13.006-6.945,22.25-11.03c0.251-0.111,0.548,0.002,0.659,0.255c0.112,0.252-0.002,0.548-0.255,0.66
						c-9.21,4.07-22.055,10.928-22.184,10.997C383.471,142.758,383.39,142.777,383.31,142.777z"/>
					<path style="fill:#805858;" d="M382.912,147.08c-0.27,0-0.491-0.214-0.5-0.485c-0.008-0.276,0.209-0.506,0.484-0.515
						c0.104-0.003,10.495-0.358,19.979-3.654c0.263-0.092,0.546,0.047,0.637,0.308c0.09,0.261-0.048,0.546-0.309,0.636
						c-9.632,3.348-20.17,3.707-20.275,3.71C382.922,147.08,382.917,147.08,382.912,147.08z"/>
				</g>
			</g>
			<g>
				<path style="fill:#E3C6AA;" d="M401.85,189.295c-16.27,0-16-23.92-18.82-24.61c1.04-4.31,1.43-9.34,0.58-14.38
					c12.34,0.62,21.3-0.41,27.81-2.44C430.11,158.865,414.14,189.295,401.85,189.295z"/>
				<path style="fill:#805858;" d="M401.85,189.295c-16.27,0-16-23.92-18.82-24.61c0.08-0.35,0.16-0.7,0.23-1.06h0.01
					c4.87,0.44,2.52,17.18,16.45,13.65c13.93-3.53,16.01-26.48,10.73-29.12c0.33-0.09,0.66-0.19,0.97-0.29
					C430.11,158.865,414.14,189.295,401.85,189.295z"/>
				<g>
					<path style="fill:#805858;" d="M411.115,163.201c-4.081,0-10.414-2.524-16.063-4.775c-4.486-1.788-8.723-3.476-11.041-3.603
						c-0.275-0.015-0.487-0.25-0.472-0.526c0.016-0.274,0.229-0.489,0.526-0.472c2.481,0.135,6.792,1.853,11.356,3.671
						c6.113,2.436,13.045,5.199,16.729,4.633c0.278-0.038,0.528,0.145,0.57,0.418c0.042,0.273-0.146,0.528-0.418,0.57
						C411.932,163.175,411.536,163.201,411.115,163.201z"/>
					<path style="fill:#805858;" d="M406.168,174.16c-0.043,0-0.088-0.006-0.132-0.018c-5.86-1.602-9.815-5.168-13.642-8.617
						c-2.815-2.539-5.476-4.938-8.62-6.198c-0.257-0.103-0.381-0.394-0.278-0.65c0.103-0.257,0.393-0.382,0.65-0.278
						c3.31,1.327,6.034,3.783,8.918,6.383c3.738,3.371,7.604,6.857,13.235,8.396c0.267,0.073,0.423,0.348,0.351,0.614
						C406.589,174.014,406.387,174.16,406.168,174.16z"/>
					<path style="fill:#805858;" d="M398.131,170.18c-0.202,0-0.393-0.123-0.468-0.324c-2.696-7.148-11.037-14.519-11.121-14.593
						c-0.207-0.182-0.228-0.498-0.046-0.706c0.182-0.208,0.497-0.228,0.706-0.046c0.35,0.308,8.613,7.612,11.396,14.992
						c0.098,0.258-0.033,0.547-0.291,0.644C398.25,170.17,398.19,170.18,398.131,170.18z"/>
					<path style="fill:#805858;" d="M399.605,160.177c-0.192,0-0.376-0.112-0.458-0.3c-2.599-5.943-5.845-9.04-5.878-9.07
						c-0.2-0.189-0.21-0.505-0.021-0.707c0.19-0.202,0.507-0.21,0.706-0.022c0.139,0.13,3.423,3.254,6.109,9.399
						c0.11,0.253-0.005,0.548-0.258,0.658C399.74,160.163,399.672,160.177,399.605,160.177z"/>
					<path style="fill:#805858;" d="M391.893,177.155c-0.004,0-0.007,0-0.011,0c-0.276-0.006-0.495-0.234-0.489-0.511
						c0.15-7.021-3.836-15.197-3.876-15.279c-0.122-0.248-0.021-0.548,0.228-0.67c0.245-0.121,0.547-0.02,0.669,0.228
						c0.169,0.343,4.135,8.479,3.979,15.743C392.387,176.938,392.165,177.155,391.893,177.155z"/>
				</g>
			</g>
			<g>
				<path style="fill:#805858;" d="M383.8,146.615c-0.13-0.43-0.52-0.73-0.96-0.73h-15.68c-0.44,0-0.83,0.3-0.96,0.73
					c-3.06,10.64-0.19,22.39,4.06,28.05c1.53,2.03,3.16,3.11,4.78,3.11c1.54,0,3.17-1.08,4.7-3.11
					C383.99,169.005,386.86,157.255,383.8,146.615z M378.14,173.455c-1.11,1.48-2.24,2.32-3.18,2.32c-0.86,0-1.99-0.84-3.1-2.32
					c-0.22-0.29-0.44-0.61-0.66-0.96c1.13,0.13,2.55,0.25,3.8,0.25s2.67-0.12,3.8-0.25
					C378.58,172.845,378.36,173.165,378.14,173.455z M379.97,170.335c-0.99,0.14-3.2,0.41-4.97,0.41c-1.77,0-3.98-0.27-4.97-0.41
					c-0.33-0.69-0.65-1.45-0.94-2.26c1.58,0.16,4.02,0.36,5.91,0.36s4.33-0.2,5.91-0.36
					C380.62,168.885,380.3,169.645,379.97,170.335z M381.61,165.995c-1.35,0.14-4.42,0.44-6.61,0.44s-5.26-0.3-6.61-0.44
					c-0.3-1.02-0.57-2.1-0.79-3.22c1.58,0.23,4.3,0.56,7.4,0.56c3.1,0,5.82-0.33,7.4-0.56
					C382.18,163.895,381.91,164.975,381.61,165.995z M382.74,160.695c-1.32,0.21-4.32,0.64-7.74,0.64c-3.41,0-6.42-0.43-7.73-0.64
					c-0.14-1.01-0.25-2.04-0.3-3.09c3.31,0.25,7.89,0.51,7.99,0.52c0.02,0,0.11-0.01,0.13-0.01c0.05,0,4.63-0.26,7.94-0.51
					C382.98,158.655,382.87,159.685,382.74,160.695z M375.02,156.125c-0.05-0.01-4.8-0.27-8.09-0.53c0.02-2.52,0.32-5.12,1-7.71
					h14.14c0.68,2.59,0.98,5.19,1,7.71C379.78,155.855,375.04,156.115,375.02,156.125z"/>
				<path style="fill:#E0AA80;" d="M383.07,155.595c-3.29,0.26-8.03,0.52-8.05,0.53c-0.05-0.01-4.8-0.27-8.09-0.53
					c0.02-2.52,0.32-5.12,1-7.71h14.14C382.75,150.475,383.05,153.075,383.07,155.595z"/>
				<path style="fill:#E0AA80;" d="M383.03,157.605c-0.05,1.05-0.16,2.08-0.29,3.09c-1.32,0.21-4.32,0.64-7.74,0.64
					c-3.41,0-6.42-0.43-7.73-0.64c-0.14-1.01-0.25-2.04-0.3-3.09c3.31,0.25,7.89,0.51,7.99,0.52c0.02,0,0.11-0.01,0.13-0.01
					C375.14,158.115,379.72,157.855,383.03,157.605z"/>
				<path style="fill:#E0AA80;" d="M382.4,162.775c-0.22,1.12-0.49,2.2-0.79,3.22c-1.35,0.14-4.42,0.44-6.61,0.44
					s-5.26-0.3-6.61-0.44c-0.3-1.02-0.57-2.1-0.79-3.22c1.58,0.23,4.3,0.56,7.4,0.56C378.1,163.335,380.82,163.005,382.4,162.775z"
					/>
				<path style="fill:#E0AA80;" d="M380.91,168.075c-0.29,0.81-0.61,1.57-0.94,2.26c-0.99,0.14-3.2,0.41-4.97,0.41
					c-1.77,0-3.98-0.27-4.97-0.41c-0.33-0.69-0.65-1.45-0.94-2.26c1.58,0.16,4.02,0.36,5.91,0.36S379.33,168.235,380.91,168.075z"/>
				<path style="fill:#E0AA80;" d="M378.8,172.495c-0.22,0.35-0.44,0.67-0.66,0.96c-1.11,1.48-2.24,2.32-3.18,2.32
					c-0.86,0-1.99-0.84-3.1-2.32c-0.22-0.29-0.44-0.61-0.66-0.96c1.13,0.13,2.55,0.25,3.8,0.25S377.67,172.625,378.8,172.495z"/>
			</g>
			<g>
				<path style="fill:#805858;" d="M375.27,128.985c-0.18-0.05-0.36-0.05-0.54,0c-5.19,1.46-8.83,6.83-9.04,13.35
					c-0.23,6.76,3.3,12.44,8.98,14.45c0.1,0.04,0.22,0.06,0.33,0.06s0.23-0.02,0.33-0.06c5.68-2.01,9.21-7.68,8.98-14.45
					C384.1,135.815,380.46,130.445,375.27,128.985z M375,154.775c-5.62-2.18-7.47-7.79-7.31-12.37c0.15-4.62,2.47-9.88,7.31-11.41
					c4.84,1.53,7.16,6.79,7.31,11.41C382.47,146.985,380.62,152.595,375,154.775z"/>
				<path style="fill:#E0AA80;" d="M375,154.775c-5.62-2.18-7.47-7.79-7.31-12.37c0.15-4.62,2.47-9.88,7.31-11.41
					c4.84,1.53,7.16,6.79,7.31,11.41C382.47,146.985,380.62,152.595,375,154.775z"/>
			</g>
			<g>
				<path style="fill:#805858;" d="M368.997,121.656c0.05,0,0.101-0.003,0.151-0.011c0.546-0.083,0.921-0.593,0.838-1.139
					c-0.863-5.692-7.709-9.248-14.329-12.687c-6.338-3.292-12.893-6.697-12.893-11.514c0-1.95,0.625-3.236,1.76-3.623
					c0.902-0.308,2.014,0.02,2.587,0.762c0.497,0.644,0.456,1.442-0.118,2.309c-0.305,0.46-0.179,1.081,0.282,1.386
					c0.462,0.304,1.081,0.178,1.386-0.282c1.044-1.577,1.057-3.31,0.033-4.635c-1.09-1.412-3.117-2.012-4.815-1.433
					c-0.937,0.319-3.114,1.496-3.114,5.516c0,6.032,7.103,9.721,13.971,13.289c6.177,3.208,12.563,6.526,13.274,11.212
					C368.085,121.301,368.511,121.656,368.997,121.656z"/>
				<path style="fill:#805858;" d="M381.003,121.656c-0.05,0-0.101-0.003-0.151-0.011c-0.546-0.083-0.921-0.593-0.838-1.139
					c0.863-5.692,7.709-9.248,14.329-12.687c6.338-3.292,12.893-6.697,12.893-11.514c0-1.95-0.625-3.236-1.76-3.623
					c-0.902-0.308-2.014,0.02-2.587,0.762c-0.497,0.644-0.456,1.442,0.118,2.309c0.305,0.46,0.179,1.081-0.282,1.386
					c-0.462,0.304-1.081,0.178-1.386-0.282c-1.044-1.577-1.057-3.31-0.033-4.635c1.09-1.412,3.117-2.012,4.815-1.433
					c0.937,0.319,3.114,1.496,3.114,5.516c0,6.032-7.103,9.721-13.971,13.289c-6.177,3.208-12.563,6.526-13.274,11.212
					C381.915,121.301,381.489,121.656,381.003,121.656z"/>
			</g>
			<g>
				<path style="fill:#805858;" d="M383.32,122.925c-0.88-3.11-3.32-5.06-6.78-5.51c-0.01,0-0.02,0-0.02,0c-0.01,0-0.01,0-0.01,0
					c-0.44-0.06-0.9-0.1-1.37-0.11h-0.28c-0.47,0.01-0.93,0.05-1.37,0.11c0,0,0,0-0.01,0c0,0-0.01,0-0.02,0
					c-3.46,0.45-5.9,2.4-6.78,5.51c-0.29,1.01-0.39,2.09-0.33,3.16c0,0.01,0,0.01,0,0.02s0,0.02,0.01,0.04
					c0.18,2.96,1.6,5.88,3.76,7.22c0.15,0.1,0.34,0.16,0.52,0.16h8.72c0.18,0,0.37-0.06,0.52-0.16c2.16-1.34,3.58-4.25,3.76-7.22
					c0.01-0.01,0.01-0.03,0.01-0.04s0-0.01,0-0.02C383.71,125.015,383.61,123.935,383.32,122.925z M368.6,123.475
					c0.41-1.45,1.43-3.11,3.82-3.82c-0.21,2.03-1.06,4.83-4.05,5.36C368.4,124.485,368.46,123.965,368.6,123.475z M379.05,131.525
					h-8.1c-1.25-0.9-2.14-2.65-2.47-4.51c3.49-0.5,5.7-3.32,5.97-7.69c0.18-0.01,0.36-0.02,0.55-0.02s0.37,0.01,0.55,0.02
					c0.27,4.37,2.48,7.19,5.97,7.69C381.19,128.875,380.3,130.625,379.05,131.525z M377.58,119.655c2.39,0.71,3.41,2.37,3.82,3.82
					c0.14,0.49,0.2,1.01,0.23,1.53C378.64,124.485,377.79,121.685,377.58,119.655z"/>
				<path style="fill:#F0DDDD;" d="M372.42,119.655c-0.21,2.03-1.06,4.83-4.05,5.36c0.03-0.53,0.09-1.05,0.23-1.54
					C369.01,122.025,370.03,120.365,372.42,119.655z"/>
				<path style="fill:#F0DDDD;" d="M381.63,125.005c-2.99-0.52-3.84-3.32-4.05-5.35c2.39,0.71,3.41,2.37,3.82,3.82
					C381.54,123.965,381.6,124.485,381.63,125.005z"/>
				<path style="fill:#B88476;" d="M381.52,127.015c-0.33,1.86-1.22,3.61-2.47,4.51h-8.1c-1.25-0.9-2.14-2.65-2.47-4.51
					c3.49-0.5,5.7-3.32,5.97-7.69c0.18-0.01,0.36-0.02,0.55-0.02s0.37,0.01,0.55,0.02C375.82,123.695,378.03,126.515,381.52,127.015
					z"/>
			</g>
		</g>
		<g style="clip-path:url(#SVGID_00000177466015099267311820000006165916325765951627_);">
			<path style="fill:#E3C6AA;" d="M685.11,372.465c-0.2,2.7-0.93,9.57-2.76,11.75c-8.67-8.52-22.65-18.82-44.13-27.54
				C639.3,356.865,674.21,363.165,685.11,372.465z"/>
			<path style="fill:#E0AA80;" d="M656.39,403.475c-8.2,3.91-16.52,4.54-16.52,4.54c-6.81-11.4-1.68-51.35-1.68-51.35
				S645.69,388.055,656.39,403.475z"/>
			<path style="fill:#B88476;" d="M755.44,514.475c-3.59,2.53-9.08,5.08-13.33,7.08c-10.59-9.89-95.44-102.14-102.24-113.54
				c0,0,8.32-0.63,16.52-4.54C667.09,418.885,733.25,492.655,755.44,514.475z"/>
			<path style="fill:#E0AA80;" d="M783.69,484.495c0.17,5.23-5.79,10.98-5.79,10.98c-7-11.67-86.87-102.75-95.55-111.26
				c1.83-2.18,2.56-9.05,2.76-11.75C696.19,381.915,773.36,471.605,783.69,484.495z"/>
			<path style="fill:#E3C6AA;" d="M796.69,539.725c0,0-11.79-32.59-18.79-44.25c0,0,5.96-5.75,5.79-10.98
				C794.03,497.385,796.69,539.725,796.69,539.725z"/>
			<path style="fill:#805858;" d="M795.83,539.535c-6.27-1.33-45-9.83-53.72-17.98c4.25-2,9.74-4.55,13.33-7.08
				C774.86,533.555,791.88,538.575,795.83,539.535z"/>
			<path style="fill:#F0DDDD;" d="M682.35,384.215c-1.82,2.17-17.76,15.34-25.96,19.26c-10.7-15.42-18.2-46.81-18.2-46.81
				c0.01,0,0.02,0.01,0.03,0.01C659.7,365.395,673.68,375.695,682.35,384.215z"/>
			<path style="fill:#E3C6AA;" d="M777.9,495.475c0,0-17.43,15.45-22.46,19c-22.19-21.82-88.35-95.59-99.05-111
				c8.2-3.92,24.14-17.09,25.96-19.26C691.03,392.725,770.9,483.805,777.9,495.475z"/>
			<path style="fill:#B88476;" d="M796.69,539.725c0,0-0.02,0-0.06-0.01c-0.04-0.01-0.12-0.03-0.23-0.05
				c-0.14-0.03-0.33-0.07-0.57-0.13c-3.95-0.96-20.97-5.98-40.39-25.06c5.03-3.55,22.46-19,22.46-19
				C784.9,507.135,796.69,539.725,796.69,539.725z"/>
		</g>
		<g style="clip-path:url(#SVGID_00000177466015099267311820000006165916325765951627_);">
			<g>
				
					<ellipse transform="matrix(0.9945 -0.1045 0.1045 0.9945 -31.5561 77.4025)" style="fill:#E3C6AA;" cx="722.686" cy="339.764" rx="4.438" ry="5.994"/>
				<circle style="fill:#E3C6AA;" cx="729.364" cy="314.243" r="3.216"/>
				
					<ellipse transform="matrix(0.9945 -0.1045 0.1045 0.9945 -28.8721 75.9039)" style="fill:#E3C6AA;" cx="709.73" cy="313.408" rx="2.817" ry="3.393"/>
				
					<ellipse transform="matrix(0.9945 -0.1045 0.1045 0.9945 -30.8595 74.6137)" style="fill:#E3C6AA;" cx="696.427" cy="331.724" rx="5.056" ry="4.746"/>
				
					<ellipse transform="matrix(0.9945 -0.1045 0.1045 0.9945 -27.9109 73.0289)" style="fill:#E3C6AA;" cx="682.782" cy="302.8" rx="5.491" ry="9.307"/>
				
					<ellipse transform="matrix(0.9945 -0.1045 0.1045 0.9945 -26.3041 76.731)" style="fill:#E3C6AA;" cx="718.905" cy="289.322" rx="3.55" ry="5.944"/>
				
					<ellipse transform="matrix(0.9945 -0.1045 0.1045 0.9945 -24.9136 74.4689)" style="fill:#E3C6AA;" cx="698.019" cy="274.924" rx="4.808" ry="5.733"/>
				
					<ellipse transform="matrix(0.9945 -0.1045 0.1045 0.9945 -23.301 75.6446)" style="fill:#E3C6AA;" cx="710.042" cy="260.127" rx="3.063" ry="4.132"/>
				<circle style="fill:#E3C6AA;" cx="673.467" cy="265.713" r="3.091"/>
				
					<ellipse transform="matrix(0.9945 -0.1045 0.1045 0.9945 -21.9906 72.8936)" style="fill:#E3C6AA;" cx="684.451" cy="246.25" rx="3.313" ry="4.188"/>
			</g>
			<g>
				
					<ellipse transform="matrix(0.2756 -0.9613 0.9613 0.2756 -219.7487 254.9545)" style="fill:#E3C6AA;" cx="59.294" cy="273.285" rx="4.839" ry="3.582"/>
				<circle style="fill:#E3C6AA;" cx="47.023" cy="307.271" r="3.216"/>
				
					<ellipse transform="matrix(0.2756 -0.9613 0.9613 0.2756 -225.0452 296.1681)" style="fill:#E3C6AA;" cx="83.992" cy="297.407" rx="4.177" ry="2.817"/>
				
					<ellipse transform="matrix(0.2756 -0.9613 0.9613 0.2756 -319.1591 275.9548)" style="fill:#E3C6AA;" cx="23.523" cy="349.747" rx="4.746" ry="5.056"/>
				
					<ellipse transform="matrix(0.2756 -0.9613 0.9613 0.2756 -296.8569 259.1489)" style="fill:#E3C6AA;" cx="23.523" cy="326.546" rx="9.307" ry="5.491"/>
				
					<ellipse transform="matrix(0.2756 -0.9613 0.9613 0.2756 -256.4714 288.4929)" style="fill:#E3C6AA;" cx="63.186" cy="314.421" rx="5.418" ry="3.55"/>
				
					<ellipse transform="matrix(0.2756 -0.9613 0.9613 0.2756 -263.7903 242.7918)" style="fill:#E3C6AA;" cx="29.203" cy="296.427" rx="5.733" ry="4.808"/>
				
					<ellipse transform="matrix(0.2756 -0.9613 0.9613 0.2756 -293.7492 285.328)" style="fill:#E3C6AA;" cx="42.447" cy="337.573" rx="4.132" ry="3.063"/>
				<circle style="fill:#E3C6AA;" cx="37.312" cy="278.457" r="3.091"/>
				
					<ellipse transform="matrix(0.2756 -0.9613 0.9613 0.2756 -184.9427 265.9487)" style="fill:#E3C6AA;" cx="83.992" cy="255.688" rx="4.188" ry="3.313"/>
			</g>
			<path style="fill:#E3C6AA;" d="M610.151,374.722c-4.828,0.887-7.686,5.419-8.671,11.725c-0.985-6.306-3.843-10.839-8.671-11.725
				c4.828-0.887,7.686-5.419,8.671-11.725C602.465,369.302,605.323,373.835,610.151,374.722z"/>
			<g>
				<path style="fill:#E3C6AA;" d="M207.959,352.069c-6.125,1.125-9.75,6.875-11,14.875c-1.25-8-4.875-13.75-11-14.875
					c6.125-1.125,9.75-6.875,11-14.875C198.209,345.194,201.834,350.944,207.959,352.069z"/>
				<path style="fill:#E3C6AA;" d="M165.97,383.759c-4.828,0.887-7.686,5.419-8.671,11.725c-0.985-6.306-3.843-10.839-8.671-11.725
					c4.828-0.887,7.686-5.419,8.671-11.725C158.285,378.34,161.142,382.872,165.97,383.759z"/>
				<path style="fill:#E3C6AA;" d="M200.109,415.253c-3.737,0.686-5.949,4.195-6.712,9.076c-0.763-4.881-2.975-8.39-6.712-9.076
					c3.737-0.686,5.949-4.195,6.712-9.076C194.16,411.058,196.372,414.566,200.109,415.253z"/>
			</g>
			<g>
				<ellipse style="fill:#E3C6AA;" cx="463.351" cy="460.138" rx="8.15" ry="10.25"/>
				<circle style="fill:#E3C6AA;" cx="476.578" cy="422.132" r="5.077"/>
				<ellipse style="fill:#E3C6AA;" cx="496.777" cy="443.608" rx="3.583" ry="4.498"/>
			</g>
			<g>
				<circle style="fill:#E3C6AA;" cx="342.098" cy="388.369" r="7.738"/>
				<circle style="fill:#E3C6AA;" cx="363.497" cy="417.748" r="5.443"/>
				<circle style="fill:#E3C6AA;" cx="336.121" cy="448.82" r="5.761"/>
			</g>
		</g>
		<g style="clip-path:url(#SVGID_00000177466015099267311820000006165916325765951627_);">
			<g>
				<path style="fill:#B88476;" d="M141.03,433.505l-6.01,19.85l-113.36,58.49l-5.63-19.12
					C16.03,492.725,139.27,435.385,141.03,433.505z"/>
				<path style="fill:#F0DDDD;" d="M186.69,445.405l-26.33,31.36l-25.34-23.41l40.52-11.55
					C181.79,443.685,186.44,445.195,186.69,445.405z"/>
				<path style="fill:#E3C6AA;" d="M175.54,441.805l-40.52,11.55l6.01-19.85C142.22,432.235,162.41,437.855,175.54,441.805z"/>
				<polygon style="fill:#E0AA80;" points="186.69,445.405 173.69,487.385 160.36,476.765 				"/>
				<path style="fill:#E0AA80;" d="M39.03,533.725l-1.34,13.66l-42.41-13.66C-4.72,533.725,37.69,533.725,39.03,533.725z"/>
				<path style="fill:#B88476;" d="M173.69,487.385l-136,60l1.34-13.66c0.78,0,41.9-19.37,76.05-35.51
					c24.42-11.55,45.28-21.45,45.28-21.45L173.69,487.385z"/>
				<polygon style="fill:#E0AA80;" points="21.66,511.845 -4.72,533.725 16.03,492.725 				"/>
				<path style="fill:#805858;" d="M39.03,533.725c-1.34,0-43.75,0-43.75,0l26.38-21.88L39.03,533.725z"/>
				<path style="fill:#E3C6AA;" d="M135.02,453.355l-19.94,44.86c-34.15,16.14-75.27,35.51-76.05,35.51l-17.37-21.88L135.02,453.355
					z"/>
				<path style="fill:#E0AA80;" d="M160.36,476.765c0,0-20.86,9.9-45.28,21.45l19.94-44.86L160.36,476.765z"/>
			</g>
			<g>
				<path style="fill:#E0AA80;" d="M125.16,393.745h-21.8c7-15.82,9.33-48.08,9.33-48.08S124.73,389.725,125.16,393.745z"/>
				<path style="fill:#B88476;" d="M125.16,393.745c0.16,1.5-10.53,19.23-24.2,41.18l2.4-41.18H125.16z"/>
				<path style="fill:#B88476;" d="M19.17,507.465c-17.71,22.83-31.14,39.92-31.14,39.92l-0.89-28.78L19.17,507.465z"/>
				<path style="fill:#805858;" d="M44.36,524.385c-3.67,6-56.33,23-56.33,23s13.43-17.09,31.14-39.92L44.36,524.385z"/>
				<path style="fill:#E0AA80;" d="M75.22,380.635c0,0-69.3,98.51-88.08,137.97l-0.78-25.22c0,0,74.05-124.12,78.6-129.86
					L75.22,380.635z"/>
				<path style="fill:#E3C6AA;" d="M112.69,345.665l-37.47,34.97l-10.26-17.11C69.51,357.785,112.69,345.665,112.69,345.665z"/>
				<path style="fill:#E3C6AA;" d="M103.36,393.745c-4.54,10.24-51.61,71.71-84.19,113.72l-32.03,11.14
					c18.78-39.46,88.08-137.97,88.08-137.97L103.36,393.745z"/>
				<path style="fill:#F0DDDD;" d="M112.69,345.665c0,0-2.33,32.26-9.33,48.08l-28.14-13.11L112.69,345.665z"/>
				<path style="fill:#E0AA80;" d="M103.36,393.745l-2.4,41.18v0.01c-22.96,36.88-54.3,85.69-56.6,89.45l-25.19-16.92
					C51.75,465.455,98.82,403.985,103.36,393.745z"/>
			</g>
		</g>
		<g style="clip-path:url(#SVGID_00000177466015099267311820000006165916325765951627_);">
			<path style="fill:#E0AA80;" d="M750,0H515.991c35.389,69.388,95.457,64.725,128.845,92.02
				c32.616,26.664,34.191,73.934,105.164,104.14V0z"/>
			<path style="fill:#93A181;" d="M781.347,246.687c-0.147,0-0.298-0.017-0.447-0.051
				c-105.021-24.011-118.342-66.287-133.766-115.238c-1.842-5.848-3.748-11.896-5.834-17.977
				c-11.989-34.944-30.587-55.003-46.994-72.702C576.49,21.503,561.102,4.906,558.946-24.8c-0.079-1.102,0.749-2.059,1.851-2.139
				c1.094-0.091,2.059,0.748,2.14,1.85c2.054,28.305,16.999,44.425,34.304,63.091c16.677,17.989,35.58,38.378,47.844,74.123
				c2.103,6.128,4.017,12.2,5.866,18.072c15.054,47.778,28.056,89.041,130.841,112.541c1.077,0.246,1.751,1.319,1.504,2.396
				C783.084,246.059,782.259,246.687,781.347,246.687z"/>
			<g>
				<path style="fill:#B88476;" d="M624.983,13.619c-14.402,17.286-1.141,36.936-1.141,36.936
					C635.61,32.087,624.983,13.619,624.983,13.619z"/>
				<path style="fill:#B88476;" d="M610.211,23.731c-17.184,3.448-21.608,35.842-21.608,35.842
					C616.193,51.888,610.211,23.731,610.211,23.731z"/>
				<path style="fill:#B88476;" d="M610.581,8.288c-6.721,16.87-34.055,18.891-34.055,18.891
					C590.027,2.388,610.581,8.288,610.581,8.288z"/>
				<g>
					<path style="fill:#524238;" d="M596.609,48.564c-0.192,0-0.388-0.056-0.56-0.172c-0.457-0.31-0.577-0.931-0.268-1.389
						c4.483-6.625,7.646-12.622,10.707-18.421c7.044-13.352,13.128-24.882,32.07-37.994c0.454-0.314,1.076-0.201,1.392,0.253
						c0.314,0.454,0.201,1.077-0.253,1.392c-18.541,12.833-24.519,24.164-31.44,37.283c-3.085,5.847-6.274,11.893-10.819,18.609
						C597.245,48.41,596.93,48.564,596.609,48.564z"/>
					<path style="fill:#524238;" d="M623.841,35.369c-0.53,0-0.973-0.417-0.998-0.952c-0.049-1.018-0.996-22.581,5.045-33.997
						c-7.247,3.962-23.555,12.614-34.533,16.423c-0.522,0.181-1.093-0.096-1.272-0.617c-0.182-0.521,0.095-1.091,0.616-1.272
						c14.238-4.94,37.667-18.19,37.902-18.323c0.426-0.243,0.969-0.138,1.274,0.246c0.307,0.384,0.289,0.935-0.043,1.298
						c-8.188,8.973-7.004,35.876-6.991,36.146c0.026,0.552-0.399,1.021-0.951,1.047C623.874,35.368,623.858,35.369,623.841,35.369z"
						/>
				</g>
			</g>
			<g>
				<path style="fill:#524238;" d="M629.95,68.163c-15.517,0-31.2-1.6-46.82-4.871c-54.388-11.386-98.016-41.786-113.856-79.335
					c-0.43-1.018,0.048-2.191,1.065-2.62c1.02-0.43,2.191,0.048,2.62,1.065c15.339,36.358,57.868,65.854,110.991,76.975
					c69.861,14.626,141.198-4.734,190.823-51.79c0.802-0.759,2.066-0.727,2.827,0.075c0.76,0.801,0.727,2.067-0.075,2.827
					C738.051,47.919,685.111,68.163,629.95,68.163z"/>
				<g>
					<path style="fill:#805858;" d="M614.308,115.285c-43.448,37.52-13.255,88.268-4.767,112.302
						C653.61,165.953,614.308,115.285,614.308,115.285z"/>
					<path style="fill:#E0AA80;" d="M629.476,154.056c-3.259-8.995-12.616-18.001-14.967-18.001
						c-2.351,0-11.522,4.499-22.472,18.472c-0.41,2.983-0.605,5.967-0.616,8.938c10.684-13.996,18.556-18.558,22.935-18.172
						c4.379,0.386,12.209,8.292,15.982,17.589C630.189,159.825,629.891,156.88,629.476,154.056z"/>
					<path style="fill:#B88476;" d="M613.561,168.797c-3.924-0.633-13.616,4.633-19.641,15.244c0.533,2.295,1.134,4.558,1.782,6.783
						c7.659-9.239,14.377-11.339,17.267-10.617c2.89,0.722,10.609,6.323,12.314,17.387c1.129-3.293,2.046-6.525,2.777-9.692
						C626.628,180.89,617.482,169.43,613.561,168.797z"/>
					<path style="fill:#524238;" d="M625.28,197.595c-3.27,9.56-8.32,19.62-15.74,29.99c-3.23-9.13-9.58-22.11-13.84-36.76
						c7.66-9.24,14.38-11.34,17.27-10.62C615.86,180.925,623.58,186.535,625.28,197.595z"/>
					<g>
						<path style="fill:#805858;" d="M631.609,142.18c-0.449,0-0.857-0.305-0.97-0.76c-0.053-0.213-5.301-21.038-16.601-31.243
							c-3.003,2.281-15.893,12.665-20.609,26.208c-0.182,0.521-0.749,0.798-1.273,0.615c-0.521-0.182-0.797-0.751-0.615-1.273
							c5.542-15.911,21.306-27.179,21.974-27.65c0.373-0.264,0.877-0.241,1.227,0.056c12.206,10.418,17.615,31.899,17.84,32.809
							c0.133,0.537-0.195,1.078-0.731,1.21C631.769,142.171,631.688,142.18,631.609,142.18z"/>
						<path style="fill:#524238;" d="M610.759,211.721c-0.031,0-0.063-0.001-0.095-0.004c-0.55-0.052-0.954-0.54-0.901-1.089
							c0.099-1.052,9.773-105.621-2.497-146.393c-0.159-0.529,0.141-1.086,0.67-1.246c0.529-0.16,1.086,0.141,1.246,0.669
							c12.382,41.146,2.671,146.102,2.571,147.157C611.705,211.333,611.269,211.721,610.759,211.721z"/>
					</g>
					<ellipse style="fill:#805858;" cx="613.655" cy="100.044" rx="5.201" ry="5.616"/>
					<g>
						<circle style="fill:#E3C6AA;" cx="607.49" cy="157.216" r="3"/>
						<circle style="fill:#E3C6AA;" cx="619.907" cy="158.653" r="3"/>
						<circle style="fill:#E3C6AA;" cx="600.819" cy="162.653" r="2"/>
						<circle style="fill:#E3C6AA;" cx="609.224" cy="129.93" r="2"/>
						<circle style="fill:#E3C6AA;" cx="623.819" cy="165.466" r="2"/>
						<circle style="fill:#E3C6AA;" cx="618.398" cy="130.85" r="2"/>
						<circle style="fill:#E3C6AA;" cx="596.319" cy="168.746" r="1.5"/>
						<circle style="fill:#E3C6AA;" cx="602.819" cy="136.055" r="1.5"/>
						<circle style="fill:#E3C6AA;" cx="622.356" cy="136.055" r="1.5"/>
						<circle style="fill:#E3C6AA;" cx="627.319" cy="172.269" r="1.5"/>
					</g>
				</g>
				<g>
					<path style="fill:#524238;" d="M581.011,119.302c-0.011,0-0.021,0-0.031,0c-0.552-0.017-0.986-0.478-0.97-1.03
						c0.013-0.394,1.202-39.537,1.432-56.767c0.008-0.548,0.454-0.987,1-0.987c0.004,0,0.009,0,0.014,0
						c0.552,0.007,0.993,0.461,0.986,1.013c-0.229,17.247-1.42,56.407-1.432,56.801
						C581.994,118.874,581.549,119.302,581.011,119.302z"/>
					<path style="fill:#E0AA80;" d="M581.769,104.723c-11.985,0-10.86,26.127-1.61,26.127S593.615,104.723,581.769,104.723z"/>
					<circle style="fill:#E0AA80;" cx="581.918" cy="81.202" r="4.784"/>
					<circle style="fill:#805858;" cx="581.67" cy="93.121" r="3.817"/>
					<circle style="fill:#805858;" cx="582.442" cy="68.755" r="3.817"/>
				</g>
				<g>
					<path style="fill:#524238;" d="M548.883,161.04c-0.003,0-0.006,0-0.01,0c-0.552-0.005-0.995-0.457-0.99-1.009
						c0.007-0.78,0.764-78.298,3.948-106.836c0.062-0.549,0.556-0.942,1.105-0.883c0.549,0.061,0.943,0.556,0.883,1.104
						c-3.174,28.439-3.93,105.854-3.937,106.633C549.879,160.599,549.431,161.04,548.883,161.04z"/>
					<path style="fill:#E0AA80;" d="M549.095,144.372c-11.985,0-10.86,26.127-1.61,26.127S560.941,144.372,549.095,144.372z"/>
					<ellipse style="fill:#E0AA80;" cx="550.339" cy="95.919" rx="6.646" ry="10.913"/>
					<circle style="fill:#805858;" cx="551.193" cy="75.241" r="4.784"/>
					<circle style="fill:#805858;" cx="549.525" cy="116.638" r="4.784"/>
				</g>
			</g>
			<g>
				<path style="fill:#F0DDDD;" d="M687.94,23.022c-13.669,0-24.349-4.507-31.364-13.362c-0.27-0.341-0.288-0.818-0.046-1.179
					c0.242-0.361,0.688-0.524,1.109-0.403c15.899,4.616,28.559,1.801,40.803-0.923c12.418-2.763,24.147-5.371,37.059,0.987
					c0.337,0.166,0.552,0.505,0.559,0.879s-0.197,0.722-0.527,0.899c-0.138,0.074-13.942,7.421-30.415,11.066
					C698.97,22.347,693.231,23.022,687.94,23.022z"/>
				<path style="fill:#93A181;" d="M644.836,106.132c-0.41,0-0.778-0.25-0.93-0.632c-0.151-0.382-0.054-0.818,0.247-1.099
					c9.788-9.14,15.951-19.52,21.912-29.558c8.742-14.725,16.293-27.441,32.753-31.357c0.495-0.119,1.01,0.161,1.178,0.649
					c3.878,11.327,1.776,23.141-6.077,34.165c-12.212,17.14-34.984,27.792-49.08,27.832
					C644.838,106.132,644.837,106.132,644.836,106.132z"/>
				<path style="fill:#805858;" d="M670.641,86.5c-0.281,0-0.562-0.118-0.759-0.349c-0.359-0.419-0.312-1.05,0.107-1.41
					c7.492-6.427,13.813-17.008,20.504-28.21c15.15-25.364,32.321-54.112,71.366-54.112c0.553,0,1,0.448,1,1s-0.447,1-1,1
					c-37.909,0-54.772,28.23-69.649,53.138c-6.777,11.346-13.179,22.063-20.918,28.702C671.104,86.421,670.872,86.5,670.641,86.5z"
					/>
				<path style="fill:#805858;" d="M735.059,9.039c-30.81,31.525-12.424,71.766-24.849,96.028
					C747.022,78.672,725.8,44.459,735.059,9.039z"/>
				<path style="fill:#805858;" d="M706.352,33.841c-29.245-9.952-40.042,8.753-70.742,6.723
					C666.693,59.573,706.352,33.841,706.352,33.841z"/>
			</g>
			<g>
				<path style="fill:#93A181;" d="M500.461,107.119c-0.466,0-0.882-0.326-0.979-0.8c-6.272-30.718,0.194-54.608,5.392-73.804
					c4.105-15.167,7.349-27.146,3.191-37.44c-0.206-0.512,0.041-1.095,0.554-1.302c0.507-0.205,1.094,0.041,1.302,0.553
					c4.408,10.917,1.088,23.183-3.116,38.712c-5.142,18.992-11.541,42.628-5.363,72.881c0.11,0.541-0.238,1.069-0.779,1.18
					C500.594,107.113,500.527,107.119,500.461,107.119z"/>
				<path style="fill:#93A181;" d="M503.527,135.589c-0.065,0-0.133-0.006-0.199-0.02c-0.443-0.09-0.771-0.467-0.799-0.918
					c-0.302-4.88-3.026-10.514-5.912-16.479c-6.367-13.164-14.292-29.546,0.819-46.317c0.259-0.287,0.662-0.399,1.03-0.289
					c0.37,0.111,0.643,0.425,0.701,0.807c0.948,6.191,3.078,11.935,5.139,17.49c4.753,12.818,9.668,26.073,0.115,45.173
					C504.25,135.38,503.9,135.589,503.527,135.589z M497.559,74.784c-12.357,15.192-5.35,29.683,0.858,42.517
					c2.355,4.87,4.608,9.526,5.604,13.873c7.275-16.708,2.961-28.34-1.592-40.616C500.568,85.536,498.65,80.363,497.559,74.784z"/>
				<path style="fill:#93A181;" d="M503.153,42.966c-23.626,2.761-21.762,29.558-43.523,41.859
					C486.86,90.993,489.315,50.409,503.153,42.966z"/>
				<path style="fill:#93A181;" d="M535.361,85.722c-0.024,0-0.049-0.001-0.073-0.002c-0.457-0.033-0.833-0.373-0.912-0.823
					c-1.862-10.511-8.019-18.344-13.971-25.919c-7.583-9.649-15.424-19.627-13.346-34.688c0.065-0.478,0.464-0.841,0.946-0.862
					c0.469-0.021,0.911,0.305,1.019,0.775c1.456,6.345,6.781,12.074,12.42,18.139c10.028,10.787,21.394,23.013,14.865,42.696
					C536.172,85.448,535.789,85.722,535.361,85.722z M508.714,29.198c0.004,11.671,6.466,19.894,13.263,28.542
					c5.365,6.828,10.892,13.859,13.475,22.933c3.674-16.374-6.049-26.834-15.473-36.971
					C515.477,38.859,511.168,34.223,508.714,29.198z"/>
				<path style="fill:#93A181;" d="M498.785,65.932c1.677,21.79,20.741,25.061,29.408,55.963
					C533.527,84.722,508.908,83.273,498.785,65.932z"/>
			</g>
			<g>
				<path style="fill:#E0AA80;" d="M424.896,47.147c-7.411-7.467-27.819-7.888-25.147,5.533
					C402.985,68.93,422.485,59.447,424.896,47.147z"/>
				<path style="fill:#E0AA80;" d="M443.492,52.199c-9.757-0.939-24.355,15.326-12.824,21.981
					C445.207,82.571,450.485,57.055,443.492,52.199z"/>
				<path style="fill:#E0AA80;" d="M473.217,34.369c-8.732,0.936-17.393,21.561-6.732,25.896
					C480.112,65.805,480.827,38.93,473.217,34.369z"/>
				<path style="fill:#E0AA80;" d="M439.327,30.863c-1.634-12.391-20.19-19.558-22.967-8.233
					C412.854,36.929,431.193,35.757,439.327,30.863z"/>
				<path style="fill:#E0AA80;" d="M466.086,18.935c-2.976-11.38-21.494-17.788-23.226-6.38
					C440.568,27.649,460.86,24.687,466.086,18.935z"/>
				<g>
					<path style="fill:#524238;" d="M412.172,51.56c-0.458,0-0.871-0.316-0.975-0.782c-0.121-0.539,0.219-1.074,0.758-1.194
						c42.781-9.543,81.976-38.148,88.439-57.348c0.175-0.523,0.74-0.805,1.267-0.629c0.523,0.176,0.805,0.743,0.628,1.267
						c-3.4,10.103-14.896,22.295-31.538,33.454c-17.571,11.78-38.297,20.733-58.36,25.208
						C412.318,51.552,412.245,51.56,412.172,51.56z"/>
					<path style="fill:#524238;" d="M438.236,62.722c-0.193,0-0.388-0.056-0.56-0.172c-0.457-0.31-0.577-0.931-0.268-1.389
						c0.087-0.127,8.561-12.749,8.749-22.373c-1.11-1.472-7.271-9.112-17.581-12.161c-0.53-0.157-0.832-0.713-0.676-1.243
						c0.157-0.529,0.717-0.829,1.242-0.675c12.074,3.571,18.569,12.796,18.84,13.187c0.116,0.167,0.178,0.366,0.178,0.569
						c0,10.279-8.725,23.27-9.096,23.818C438.872,62.568,438.556,62.722,438.236,62.722z"/>
					<path style="fill:#524238;" d="M471.117,47.921c-0.082,0-0.165-0.01-0.247-0.031c-0.535-0.136-0.859-0.68-0.723-1.215
						c0.033-0.134,3.338-13.31,2.039-22.669c-1.451-1.183-8.612-6.64-18.977-8.212c-0.546-0.083-0.921-0.593-0.838-1.139
						s0.592-0.924,1.139-0.839c12.198,1.852,19.95,8.633,20.274,8.921c0.174,0.155,0.289,0.365,0.324,0.596
						c1.503,9.784-1.879,23.266-2.024,23.835C471.97,47.62,471.563,47.921,471.117,47.921z"/>
				</g>
			</g>
			<g>
				<path style="fill:#93A181;" d="M716.033,165.953c-20.212,3.588-19.173,35.935-29.981,49.588
					C716.362,207.722,716.033,165.953,716.033,165.953z"/>
				<path style="fill:#93A181;" d="M720.211,169.93c-10.351,28.292,9.649,52.458,9.649,52.458
					C730.193,199.722,734.81,182.388,720.211,169.93z"/>
				<path style="fill:#93A181;" d="M741.826,142.33c-17.802,20.225,1.159,46.725,1.159,46.725
					C744.743,173.805,751.735,154.68,741.826,142.33z"/>
				<path style="fill:#93A181;" d="M734.81,130.93c-23.45-8.125-37.075,11.4-53.825,16.5
					C719.837,159.43,734.81,130.93,734.81,130.93z"/>
				<g>
					<path style="fill:#805858;" d="M699.924,198.168c-0.187,0-0.374-0.052-0.542-0.161c-0.464-0.3-0.597-0.919-0.297-1.383
						c2.771-4.282,5.327-9.583,8.286-15.722c9.342-19.379,22.135-45.918,55.489-67.133c0.468-0.296,1.085-0.159,1.381,0.307
						c0.297,0.466,0.159,1.084-0.307,1.38c-32.874,20.909-45.524,47.152-54.762,66.314c-2.988,6.199-5.568,11.553-8.408,15.94
						C700.574,198.007,700.253,198.168,699.924,198.168z"/>
					<path style="fill:#805858;" d="M724.526,199.221c-0.463,0-0.878-0.323-0.978-0.793c-0.246-1.165-5.998-28.646-4.327-39.881
						c0.082-0.546,0.593-0.921,1.137-0.842c0.546,0.082,0.923,0.59,0.842,1.136c-1.619,10.881,4.246,38.893,4.306,39.174
						c0.114,0.541-0.231,1.071-0.772,1.185C724.664,199.215,724.594,199.221,724.526,199.221z"/>
					<path style="fill:#805858;" d="M740.383,168.221c-0.515,0-0.952-0.395-0.995-0.917c-1.722-20.706,3.784-34.616,6.125-39.468
						c-5.884,1.286-11.985,3.88-18.938,6.836c-7.124,3.029-15.197,6.462-25.243,9.505c-0.53,0.161-1.087-0.139-1.247-0.667
						c-0.16-0.529,0.139-1.087,0.667-1.247c9.942-3.012,17.964-6.423,25.041-9.432c7.865-3.344,14.657-6.232,21.404-7.358
						c0.381-0.066,0.77,0.101,0.989,0.422s0.233,0.741,0.034,1.076c-0.089,0.15-8.905,15.326-6.841,40.166
						c0.046,0.551-0.363,1.034-0.913,1.08C740.439,168.221,740.411,168.221,740.383,168.221z"/>
				</g>
			</g>
		</g>
		<g style="clip-path:url(#SVGID_00000177466015099267311820000006165916325765951627_);">
			<path style="fill:#E0AA80;" d="M0,0l234.009,0c-35.389,69.388-95.457,64.725-128.845,92.02
				C72.548,118.683,70.973,165.953,0,196.159L0,0z"/>
			<path style="fill:#93A181;" d="M-31.347,246.687c0.147,0,0.298-0.017,0.447-0.051C74.121,222.626,87.442,180.35,102.866,131.399
				c1.842-5.848,3.748-11.896,5.834-17.977c11.989-34.944,30.587-55.003,46.994-72.702c17.816-19.218,33.204-35.815,35.36-65.521
				c0.079-1.102-0.749-2.059-1.851-2.139c-1.094-0.091-2.059,0.748-2.14,1.85c-2.054,28.305-16.999,44.425-34.304,63.091
				c-16.677,17.989-35.58,38.378-47.844,74.123c-2.103,6.128-4.017,12.2-5.866,18.072c-15.054,47.778-28.056,89.041-130.841,112.541
				c-1.077,0.246-1.751,1.319-1.504,2.396C-33.084,246.059-32.259,246.687-31.347,246.687z"/>
			<g>
				<path style="fill:#B88476;" d="M125.017,13.619c14.402,17.286,1.141,36.936,1.141,36.936
					C114.39,32.087,125.017,13.619,125.017,13.619z"/>
				<path style="fill:#B88476;" d="M139.789,23.731c17.184,3.448,21.608,35.842,21.608,35.842
					C133.807,51.888,139.789,23.731,139.789,23.731z"/>
				<path style="fill:#B88476;" d="M139.419,8.288c6.721,16.87,34.054,18.891,34.054,18.891
					C159.973,2.388,139.419,8.288,139.419,8.288z"/>
				<g>
					<path style="fill:#524238;" d="M153.391,48.564c0.192,0,0.388-0.056,0.56-0.172c0.457-0.31,0.577-0.931,0.268-1.389
						c-4.483-6.625-7.646-12.622-10.707-18.421c-7.044-13.352-13.128-24.882-32.07-37.994c-0.454-0.314-1.076-0.201-1.392,0.253
						c-0.314,0.454-0.201,1.077,0.253,1.392c18.541,12.833,24.519,24.164,31.44,37.283c3.085,5.847,6.274,11.893,10.819,18.609
						C152.755,48.41,153.07,48.564,153.391,48.564z"/>
					<path style="fill:#524238;" d="M126.159,35.369c0.53,0,0.973-0.417,0.998-0.952c0.049-1.018,0.996-22.581-5.045-33.997
						c7.247,3.962,23.555,12.614,34.533,16.423c0.522,0.181,1.093-0.096,1.272-0.617c0.182-0.521-0.095-1.091-0.616-1.272
						c-14.238-4.94-37.667-18.19-37.902-18.323c-0.426-0.243-0.969-0.138-1.274,0.246c-0.307,0.384-0.289,0.935,0.043,1.298
						c8.188,8.973,7.004,35.876,6.991,36.146c-0.026,0.552,0.399,1.021,0.951,1.047C126.126,35.368,126.142,35.369,126.159,35.369z"
						/>
				</g>
			</g>
			<g>
				<path style="fill:#524238;" d="M120.05,68.163c15.517,0,31.2-1.6,46.82-4.871c54.388-11.386,98.016-41.786,113.856-79.335
					c0.43-1.018-0.048-2.191-1.065-2.62c-1.02-0.43-2.191,0.048-2.62,1.065c-15.339,36.358-57.868,65.854-110.991,76.975
					C96.189,74.003,24.852,54.643-24.773,7.588c-0.802-0.759-2.066-0.727-2.827,0.075c-0.76,0.801-0.727,2.067,0.075,2.827
					C11.949,47.919,64.889,68.163,120.05,68.163z"/>
				<g>
					<path style="fill:#805858;" d="M135.692,115.285c43.448,37.52,13.255,88.268,4.767,112.302
						C96.39,165.953,135.692,115.285,135.692,115.285z"/>
					<path style="fill:#E0AA80;" d="M120.524,154.056c3.259-8.995,12.616-18.001,14.967-18.001c2.351,0,11.522,4.499,22.472,18.472
						c0.41,2.983,0.605,5.967,0.616,8.938c-10.684-13.996-18.556-18.558-22.935-18.172c-4.379,0.386-12.209,8.292-15.982,17.589
						C119.811,159.825,120.109,156.88,120.524,154.056z"/>
					<path style="fill:#B88476;" d="M136.439,168.797c3.924-0.633,13.616,4.633,19.641,15.244c-0.533,2.295-1.134,4.558-1.782,6.783
						c-7.659-9.239-14.377-11.339-17.267-10.617c-2.89,0.722-10.609,6.323-12.314,17.387c-1.129-3.293-2.046-6.525-2.777-9.692
						C123.372,180.89,132.518,169.43,136.439,168.797z"/>
					<path style="fill:#524238;" d="M124.72,197.595c3.27,9.56,8.32,19.62,15.74,29.99c3.23-9.13,9.58-22.11,13.84-36.76
						c-7.66-9.24-14.38-11.34-17.27-10.62C134.14,180.925,126.42,186.535,124.72,197.595z"/>
					<g>
						<path style="fill:#805858;" d="M118.391,142.18c0.449,0,0.857-0.305,0.97-0.76c0.053-0.213,5.301-21.038,16.601-31.243
							c3.003,2.281,15.893,12.665,20.609,26.208c0.182,0.521,0.749,0.798,1.273,0.615c0.521-0.182,0.797-0.751,0.615-1.273
							c-5.542-15.911-21.306-27.179-21.974-27.65c-0.373-0.264-0.877-0.241-1.227,0.056c-12.206,10.418-17.615,31.899-17.84,32.809
							c-0.133,0.537,0.195,1.078,0.731,1.21C118.231,142.171,118.312,142.18,118.391,142.18z"/>
						<path style="fill:#524238;" d="M139.241,211.721c0.031,0,0.063-0.001,0.095-0.004c0.55-0.052,0.954-0.54,0.901-1.089
							c-0.099-1.052-9.773-105.621,2.497-146.393c0.159-0.529-0.141-1.086-0.67-1.246c-0.529-0.16-1.086,0.141-1.246,0.669
							c-12.382,41.146-2.671,146.102-2.571,147.157C138.295,211.333,138.731,211.721,139.241,211.721z"/>
					</g>
					<ellipse style="fill:#805858;" cx="136.345" cy="100.044" rx="5.201" ry="5.616"/>
					<g>
						<circle style="fill:#E3C6AA;" cx="142.51" cy="157.216" r="3"/>
						<circle style="fill:#E3C6AA;" cx="130.093" cy="158.653" r="3"/>
						<circle style="fill:#E3C6AA;" cx="149.181" cy="162.653" r="2"/>
						<circle style="fill:#E3C6AA;" cx="140.776" cy="129.93" r="2"/>
						<circle style="fill:#E3C6AA;" cx="126.181" cy="165.466" r="2"/>
						<circle style="fill:#E3C6AA;" cx="131.602" cy="130.85" r="2"/>
						<circle style="fill:#E3C6AA;" cx="153.681" cy="168.746" r="1.5"/>
						<circle style="fill:#E3C6AA;" cx="147.181" cy="136.055" r="1.5"/>
						<circle style="fill:#E3C6AA;" cx="127.644" cy="136.055" r="1.5"/>
						<circle style="fill:#E3C6AA;" cx="122.681" cy="172.269" r="1.5"/>
					</g>
				</g>
				<g>
					<path style="fill:#524238;" d="M168.989,119.302c0.011,0,0.021,0,0.031,0c0.552-0.017,0.986-0.478,0.97-1.03
						c-0.013-0.394-1.202-39.537-1.432-56.767c-0.008-0.548-0.454-0.987-1-0.987c-0.004,0-0.009,0-0.014,0
						c-0.552,0.007-0.993,0.461-0.986,1.013c0.229,17.247,1.42,56.407,1.432,56.801
						C168.006,118.874,168.451,119.302,168.989,119.302z"/>
					<path style="fill:#E0AA80;" d="M168.231,104.723c11.985,0,10.86,26.127,1.61,26.127S156.385,104.723,168.231,104.723z"/>
					<circle style="fill:#E0AA80;" cx="168.082" cy="81.202" r="4.784"/>
					<circle style="fill:#805858;" cx="168.33" cy="93.121" r="3.817"/>
					<circle style="fill:#805858;" cx="167.558" cy="68.755" r="3.817"/>
				</g>
				<g>
					<path style="fill:#524238;" d="M201.117,161.04c0.003,0,0.006,0,0.01,0c0.552-0.005,0.995-0.457,0.99-1.009
						c-0.007-0.78-0.764-78.298-3.948-106.836c-0.062-0.549-0.556-0.942-1.105-0.883c-0.549,0.061-0.943,0.556-0.883,1.104
						c3.174,28.439,3.93,105.854,3.937,106.633C200.121,160.599,200.569,161.04,201.117,161.04z"/>
					<path style="fill:#E0AA80;" d="M200.905,144.372c11.985,0,10.86,26.127,1.61,26.127S189.059,144.372,200.905,144.372z"/>
					<ellipse style="fill:#E0AA80;" cx="199.661" cy="95.919" rx="6.646" ry="10.913"/>
					<circle style="fill:#805858;" cx="198.807" cy="75.241" r="4.784"/>
					<circle style="fill:#805858;" cx="200.475" cy="116.638" r="4.784"/>
				</g>
			</g>
			<g>
				<path style="fill:#F0DDDD;" d="M44.883,20.987C28.411,17.342,14.606,9.994,14.468,9.92c-0.33-0.177-0.534-0.524-0.527-0.899
					s0.222-0.714,0.559-0.879c12.911-6.358,24.641-3.75,37.059-0.987c12.244,2.724,24.903,5.539,40.803,0.923
					c0.421-0.122,0.867,0.042,1.109,0.403c0.242,0.361,0.224,0.837-0.046,1.179c-7.016,8.855-17.695,13.362-31.364,13.362
					C56.769,23.022,51.03,22.347,44.883,20.987z"/>
				<path style="fill:#93A181;" d="M105.161,106.132c-14.096-0.04-36.868-10.691-49.08-27.832
					c-7.854-11.024-9.955-22.838-6.077-34.165c0.168-0.488,0.683-0.768,1.178-0.649c16.46,3.916,24.011,16.632,32.753,31.357
					c5.961,10.038,12.124,20.418,21.912,29.558c0.301,0.281,0.398,0.717,0.247,1.099c-0.151,0.381-0.52,0.632-0.93,0.632
					C105.163,106.132,105.162,106.132,105.161,106.132z"/>
				<path style="fill:#805858;" d="M79.359,86.5c0.281,0,0.562-0.118,0.759-0.349c0.359-0.419,0.312-1.05-0.107-1.41
					c-7.492-6.427-13.813-17.008-20.504-28.21C44.356,31.167,27.185,2.419-11.86,2.419c-0.553,0-1,0.448-1,1s0.447,1,1,1
					c37.909,0,54.772,28.23,69.649,53.138c6.777,11.346,13.179,22.063,20.918,28.702C78.896,86.421,79.128,86.5,79.359,86.5z"/>
				<path style="fill:#805858;" d="M14.941,9.039c30.81,31.525,12.424,71.766,24.849,96.028C2.978,78.672,24.2,44.459,14.941,9.039z
					"/>
				<path style="fill:#805858;" d="M43.648,33.841c29.245-9.952,40.042,8.753,70.742,6.723
					C83.307,59.573,43.648,33.841,43.648,33.841z"/>
			</g>
			<g>
				<path style="fill:#93A181;" d="M249.539,107.119c0.466,0,0.882-0.326,0.979-0.8c6.272-30.718-0.194-54.608-5.392-73.804
					c-4.105-15.167-7.349-27.146-3.191-37.44c0.206-0.512-0.041-1.095-0.554-1.302c-0.507-0.205-1.094,0.041-1.302,0.553
					c-4.408,10.917-1.088,23.183,3.116,38.712c5.142,18.992,11.541,42.628,5.363,72.881c-0.11,0.541,0.238,1.069,0.779,1.18
					C249.406,107.113,249.473,107.119,249.539,107.119z"/>
				<path style="fill:#93A181;" d="M245.578,135.036c-9.553-19.101-4.638-32.355,0.115-45.173c2.061-5.555,4.19-11.299,5.139-17.49
					c0.059-0.382,0.331-0.696,0.701-0.807c0.368-0.11,0.771,0.001,1.03,0.289c15.111,16.771,7.187,33.153,0.819,46.317
					c-2.886,5.965-5.61,11.599-5.912,16.479c-0.027,0.452-0.355,0.828-0.799,0.918c-0.066,0.014-0.134,0.02-0.199,0.02
					C246.1,135.589,245.75,135.38,245.578,135.036z M247.57,90.558c-4.553,12.276-8.867,23.907-1.592,40.616
					c0.996-4.347,3.249-9.003,5.604-13.873c6.208-12.834,13.216-27.325,0.858-42.517C251.35,80.363,249.432,85.536,247.57,90.558z"
					/>
				<path style="fill:#93A181;" d="M246.847,42.966c23.626,2.761,21.762,29.558,43.523,41.859
					C263.14,90.993,260.685,50.409,246.847,42.966z"/>
				<path style="fill:#93A181;" d="M213.691,85.036c-6.528-19.683,4.837-31.909,14.865-42.696
					c5.639-6.065,10.964-11.794,12.42-18.139c0.107-0.471,0.55-0.796,1.019-0.775c0.482,0.021,0.881,0.384,0.946,0.862
					c2.078,15.061-5.763,25.039-13.346,34.688c-5.952,7.576-12.108,15.409-13.971,25.919c-0.079,0.451-0.455,0.79-0.912,0.823
					c-0.024,0.001-0.049,0.002-0.073,0.002C214.211,85.722,213.827,85.448,213.691,85.036z M230.021,43.702
					c-9.424,10.137-19.146,20.597-15.473,36.971c2.583-9.073,8.109-16.104,13.475-22.933c6.797-8.648,13.259-16.871,13.263-28.542
					C238.832,34.223,234.523,38.859,230.021,43.702z"/>
				<path style="fill:#93A181;" d="M251.215,65.932c-1.677,21.79-20.741,25.061-29.408,55.963
					C216.473,84.722,241.092,83.273,251.215,65.932z"/>
			</g>
			<g>
				<path style="fill:#E0AA80;" d="M325.104,47.147c7.411-7.467,27.819-7.888,25.147,5.533
					C347.015,68.93,327.515,59.447,325.104,47.147z"/>
				<path style="fill:#E0AA80;" d="M306.508,52.199c9.757-0.939,24.355,15.326,12.824,21.981
					C304.793,82.571,299.515,57.055,306.508,52.199z"/>
				<path style="fill:#E0AA80;" d="M276.783,34.369c8.732,0.936,17.393,21.561,6.732,25.896
					C269.888,65.805,269.173,38.93,276.783,34.369z"/>
				<path style="fill:#E0AA80;" d="M310.673,30.863c1.634-12.391,20.19-19.558,22.967-8.233
					C337.146,36.929,318.807,35.757,310.673,30.863z"/>
				<path style="fill:#E0AA80;" d="M283.914,18.935c2.976-11.38,21.494-17.788,23.226-6.38
					C309.432,27.649,289.14,24.687,283.914,18.935z"/>
				<g>
					<path style="fill:#524238;" d="M337.828,51.56c0.458,0,0.871-0.316,0.975-0.782c0.121-0.539-0.219-1.074-0.758-1.194
						c-42.781-9.543-81.976-38.148-88.439-57.348c-0.175-0.523-0.74-0.805-1.267-0.629c-0.523,0.176-0.805,0.743-0.628,1.267
						c3.4,10.103,14.896,22.295,31.538,33.454c17.571,11.78,38.297,20.733,58.36,25.208C337.682,51.552,337.755,51.56,337.828,51.56
						z"/>
					<path style="fill:#524238;" d="M311.764,62.722c0.193,0,0.388-0.056,0.56-0.172c0.457-0.31,0.577-0.931,0.268-1.389
						c-0.087-0.127-8.561-12.749-8.749-22.373c1.11-1.472,7.271-9.112,17.581-12.161c0.53-0.157,0.832-0.713,0.676-1.243
						c-0.157-0.529-0.717-0.829-1.242-0.675c-12.074,3.571-18.569,12.796-18.84,13.187c-0.116,0.167-0.178,0.366-0.178,0.569
						c0,10.279,8.725,23.27,9.096,23.818C311.128,62.568,311.444,62.722,311.764,62.722z"/>
					<path style="fill:#524238;" d="M278.883,47.921c0.082,0,0.165-0.01,0.247-0.031c0.535-0.136,0.859-0.68,0.723-1.215
						c-0.033-0.134-3.338-13.31-2.039-22.669c1.451-1.183,8.612-6.64,18.977-8.212c0.546-0.083,0.921-0.593,0.838-1.139
						s-0.592-0.924-1.139-0.839c-12.198,1.852-19.95,8.633-20.274,8.921c-0.174,0.155-0.289,0.365-0.324,0.596
						c-1.503,9.784,1.879,23.266,2.024,23.835C278.03,47.62,278.437,47.921,278.883,47.921z"/>
				</g>
			</g>
			<g>
				<path style="fill:#93A181;" d="M33.967,165.953c20.212,3.588,19.173,35.935,29.981,49.588
					C33.638,207.722,33.967,165.953,33.967,165.953z"/>
				<path style="fill:#93A181;" d="M29.789,169.93c10.351,28.292-9.649,52.458-9.649,52.458
					C19.807,199.722,15.19,182.388,29.789,169.93z"/>
				<path style="fill:#93A181;" d="M8.174,142.33c17.802,20.225-1.159,46.725-1.159,46.725C5.257,173.805-1.735,154.68,8.174,142.33
					z"/>
				<path style="fill:#93A181;" d="M15.19,130.93c23.45-8.125,37.075,11.4,53.825,16.5C30.163,159.43,15.19,130.93,15.19,130.93z"/>
				<g>
					<path style="fill:#805858;" d="M50.076,198.168c0.187,0,0.374-0.052,0.542-0.161c0.464-0.3,0.597-0.919,0.297-1.383
						c-2.771-4.282-5.327-9.583-8.286-15.722c-9.342-19.379-22.135-45.918-55.489-67.133c-0.468-0.296-1.085-0.159-1.381,0.307
						c-0.297,0.466-0.159,1.084,0.307,1.38c32.874,20.909,45.524,47.152,54.762,66.314c2.988,6.199,5.568,11.553,8.408,15.94
						C49.426,198.007,49.747,198.168,50.076,198.168z"/>
					<path style="fill:#805858;" d="M25.474,199.221c0.463,0,0.878-0.323,0.978-0.793c0.246-1.165,5.998-28.646,4.327-39.881
						c-0.082-0.546-0.593-0.921-1.137-0.842c-0.546,0.082-0.923,0.59-0.842,1.136c1.619,10.881-4.246,38.893-4.306,39.174
						c-0.114,0.541,0.231,1.071,0.772,1.185C25.336,199.215,25.406,199.221,25.474,199.221z"/>
					<path style="fill:#805858;" d="M9.617,168.221c0.515,0,0.952-0.395,0.995-0.917c1.722-20.706-3.784-34.616-6.125-39.468
						c5.884,1.286,11.985,3.88,18.938,6.836c7.124,3.029,15.197,6.462,25.243,9.505c0.53,0.161,1.087-0.139,1.247-0.667
						c0.16-0.529-0.139-1.087-0.667-1.247c-9.942-3.012-17.964-6.423-25.041-9.432c-7.865-3.344-14.657-6.232-21.404-7.358
						c-0.381-0.066-0.77,0.101-0.989,0.422s-0.233,0.741-0.034,1.076c0.089,0.15,8.905,15.326,6.841,40.166
						c-0.046,0.551,0.363,1.034,0.913,1.08C9.561,168.221,9.589,168.221,9.617,168.221z"/>
				</g>
			</g>
		</g>
	</g>
</g>
</svg>
